<svg width="582" height="362" viewBox="0 0 582 362" xmlns="http://www.w3.org/2000/svg" xmlns:xlink="http://www.w3.org/1999/xlink">
    <defs>
        <path d="m336.507 68.988-8.416-20.823a68.145 68.145 0 0 0-8.125-14.8c-35.533-50.013-157.73-44.6-254.683 31.963-52.021 41.08-71.719 72.8-62.937 102.464l2.443 8.505-2.419-8.427c1.089 3.657 5.019 15.652 6.885 18.969l13.233 28.519 18.938-8.827a121.453 121.453 0 0 0 28.855 7.383c59.02 8.063 138.078-18.513 190.732-58.085 32.06-24.094 55.05-53.562 62.9-80.971l12.594-5.87z" id="a"/>
        <path d="m336.507 68.988-8.416-20.823a68.145 68.145 0 0 0-8.125-14.8c-35.533-50.013-157.73-44.6-254.683 31.963-52.021 41.08-71.719 72.8-62.937 102.464l2.443 8.505-2.419-8.427c1.089 3.657 5.019 15.652 6.885 18.969l13.233 28.519 18.938-8.827a121.453 121.453 0 0 0 28.855 7.383c59.02 8.063 138.078-18.513 190.732-58.085 32.06-24.094 55.05-53.562 62.9-80.971l12.594-5.87z" id="c"/>
        <path d="M62.825 64.951c96.953-76.561 219.15-81.976 254.682-31.963 25.284 35.587-3.008 90.758-56.5 130.962-52.654 39.572-131.712 66.147-190.733 58.085-81.902-11.187-101.595-82.735-7.449-157.084z" id="e"/>
        <path d="M212.012 149.958C199.601 60.924 137.512-4.642 81.402.401l-.007-.007-.276.031a70.39 70.39 0 0 0-2.783.32L43.01 4.79l5.672 11.426c-35.9 29.373-55.371 93.552-45.557 163.962 9.03 64.779 40.417 117.354 78.459 139.257l1.084 15.666 34.177-3.983c2.254-.098 4.5-.31 6.733-.634.951-.14 1.898-.3 2.839-.482h.042c55.741-10.678 98.029-90.547 85.553-180.044z" id="h"/>
        <path d="M265.012 149.867C252.601 60.832 190.512-4.733 134.402.31l-.007-.008-.276.032c-.928.087-1.856.193-2.783.32l-30.687 3.513a84.428 84.428 0 0 0-4.639.531c-64.051 9.329-105.646 90.68-92.9 181.7 12.31 87.95 70.845 152.742 132.563 148.6v.005l.081-.009a84.038 84.038 0 0 0 6.4-.677c.485-.071.965-.159 1.448-.238l26.25-3.058a65.587 65.587 0 0 0 9.572-1.116h.042c55.734-10.672 98.022-90.541 85.546-180.038z" id="k"/>
        <linearGradient x1="37.6%" y1="16.4%" x2="61.5%" y2="79.6%" id="g">
            <stop stop-color="#E5BB7B" offset="25.7%"/>
            <stop stop-color="#DFB477" offset="31.5%"/>
            <stop stop-color="#CDA06B" offset="54.1%"/>
            <stop stop-color="#C29464" offset="77%"/>
            <stop stop-color="#BF9162" offset="100%"/>
        </linearGradient>
        <linearGradient x1="44.8%" y1="38.8%" x2="21.7%" y2="-7.5%" id="j">
            <stop stop-color="#E6BC7B" stop-opacity="0" offset="0%"/>
            <stop stop-color="#ECE1D3" offset="20.8%"/>
            <stop stop-color="#DCB890" offset="37.8%"/>
            <stop stop-color="#FFF" offset="68.2%"/>
            <stop stop-color="#E6BC7B" stop-opacity="0" offset="100%"/>
        </linearGradient>
    </defs>
    <g fill="none" fill-rule="evenodd">
        <path d="m572.507 121.988-8.416-20.823a68.145 68.145 0 0 0-8.125-14.8c-35.533-50.013-157.73-44.6-254.683 31.963-52.021 41.08-71.719 72.8-62.937 102.464l2.443 8.505-2.419-8.427c1.089 3.657 5.019 15.652 6.885 18.969l13.233 28.519 18.938-8.827a121.453 121.453 0 0 0 28.855 7.383c59.02 8.063 138.078-18.513 190.732-58.085 32.06-24.094 55.05-53.562 62.9-80.971l12.594-5.87z" fill="#BED0D3"/>
        <g transform="translate(236 53)">
            <mask id="b" fill="#fff">
                <use xlink:href="#a"/>
            </mask>
            <g stroke="#CEE9F4" stroke-width="3.074" mask="url(#b)" stroke-linecap="round" stroke-linejoin="round">
                <path d="m-49.703 44.875 93.514 220.839M-28.487 39.174l93.514 220.839M-7.271 33.473l93.514 220.839M13.944 27.771l93.514 220.839M35.16 22.07l93.514 220.839M56.376 16.368l93.514 220.839M77.592 10.667l93.514 220.839M98.808 4.965l93.514 220.839M120.023-.736l93.514 220.839M141.239-6.437l93.514 220.839M162.455-12.139 255.969 208.7M183.671-17.841l93.514 220.839M204.887-23.542l93.514 220.839M226.103-29.243l93.514 220.839M247.318-34.945l93.514 220.839M268.534-40.646l93.514 220.839M289.75-46.348l93.514 220.839"/>
            </g>
        </g>
        <g transform="translate(236 53)">
            <mask id="d" fill="#fff">
                <use xlink:href="#c"/>
            </mask>
            <g mask="url(#d)" opacity=".53">
                <path transform="rotate(-.688 -27651.06 16588.66)" d="M3.811 4.136h556.958v501.843H3.811z" style="mix-blend-mode:screen"/>
            </g>
        </g>
        <path d="M317.825 153.951c96.953-76.561 219.15-81.976 254.682-31.963 25.284 35.587-3.008 90.758-56.5 130.962-52.654 39.572-131.712 66.147-190.733 58.085-81.902-11.187-101.595-82.735-7.449-157.084z" fill="#6E7989"/>
        <g stroke="#475460" stroke-linecap="round" stroke-linejoin="round" stroke-width="8.052">
            <path d="M460.928 248.978c-2.5-4.772-3.45-7.418-9.364-6.017 4.981-2.107 4.688-2.472 6.341-4.86 3.343-4.833 6.76-13.933 22.533-27.554 0 0 15.565-7.3 23.951-12.863 0 0 6.1-2.921-.98-4.2 0 0-11.392-2.358-12.233-13.69-.9-12.116 9.028-20.44 8.843-24.185-.13-2.647-15.175-.144-15.175-.144l-57.662 11.75-6.487 2.222c-2.808.962-5.073 2.79-5.795 4.677-4.756 12.455-22.544 58.946-27.962 76.894 1.266 4.461 4.822 8.98 11.423 12.238l30.179 8.759a167.67 167.67 0 0 0 10.235 1.9 13.68 13.68 0 0 0 7.314-1.651c12.687-6.286 19.1-15.154 14.839-23.276z"/>
            <path d="M388.422 289.827c-17.27 2.252-34.271 2.347-49.567-.384-63.826-11.4-72.12-67.111 2.645-121.972 76.4-56.062 175.231-64.618 208.509-29.333 25.394 26.925 2.766 72.154-44.989 105.881a254.257 254.257 0 0 1-30.74 18.526M399.735 263.99l-64.013-17.807M387.396 237.335 342.03 221.92M395.096 214.178l-42.828-17.541M405.373 189.372l-33.354-16.357"/>
            <path d="m460.707 192.53-10.437 19.643-11.329-3.509-9.432 18.653"/>
        </g>
        <g transform="translate(255 89)">
            <mask id="f" fill="#fff">
                <use xlink:href="#e"/>
            </mask>
            <g mask="url(#f)" opacity=".53">
                <path transform="rotate(-.688 -569.734 3250.295)" d="M3.151 4.263h556.958v501.843H3.151z" style="mix-blend-mode:screen"/>
            </g>
        </g>
        <path d="M99.722 101.4c87.145-62.662 195.251-63.059 228.325-20.689 23.533 30.15-10.861 88.509-58.974 121.377-47.358 32.351-122.845 54.906-176.69 47.3C17.665 238.835 15.1 162.247 99.722 101.4z" stroke="#929497" stroke-width="3.857" opacity=".44" style="mix-blend-mode:multiply" stroke-linecap="round" stroke-linejoin="round" transform="translate(236 53)"/>
        <path d="M111.08 224.4c-63.051-9.117-57.049-61.9 13.585-108.989 61.3-40.45 151.847-51.91 180.156-18.144 17.307 21.1-11.653 61.656-51.832 87.065" stroke="#929497" stroke-width="3.143" opacity=".44" style="mix-blend-mode:multiply" stroke-linecap="round" stroke-linejoin="round" transform="translate(236 53)"/>
        <path stroke="#929497" stroke-width="3.143" opacity=".44" style="mix-blend-mode:multiply" stroke-linecap="round" stroke-linejoin="round" d="m287.424 101.4-10.223 20.472 18.024 2.421zM174.973 102.501l70.484-14.796M85.388 191.01l9.416-27.171-16.679 12.789zM102.667 206.613l76.475 20.177M242.229 176.627l20.446-15.438M173.833 184.969l27.773 6.735-1.883 16.12-31.3-8.743zM179.142 168.908c.2-.832 15.392-38.443 15.392-38.443l42.919-7.585a23.755 23.755 0 0 0 4.775 19.168" transform="translate(236 53)"/>
        <g>
            <path d="M285.012 160.958c-12.411-89.034-74.5-154.6-130.61-149.557l-.007-.007-.276.031a70.39 70.39 0 0 0-2.783.32L116.01 15.79l5.672 11.426c-35.9 29.373-55.371 93.552-45.557 163.962 9.03 64.779 40.417 117.354 78.459 139.257l1.084 15.666 34.177-3.983c2.254-.098 4.5-.31 6.733-.634.951-.14 1.898-.3 2.839-.482h.042c55.741-10.678 98.029-90.547 85.553-180.044z" fill="url(#g)"/>
            <g transform="translate(73 11)">
                <mask id="i" fill="#fff">
                    <use xlink:href="#h"/>
                </mask>
                <g stroke="#E6BC7B" stroke-width="3.222" mask="url(#i)" stroke-linecap="round" stroke-linejoin="round">
                    <path d="m-35.781 16.247 225.589-24.81M-28.621 36.334l221.773-24.681M-21.461 56.421l217.957-24.552M-14.302 76.507l214.141-24.423M-7.143 96.594 203.182 72.3M.017 116.681l206.509-24.165M7.177 136.769l202.693-24.037M14.336 156.856l198.877-23.908M21.496 176.943l195.061-23.779M28.656 197.029l191.245-23.65M35.815 217.116l187.429-23.521M42.975 237.203l183.613-23.392M50.134 257.29l179.797-23.263M57.294 277.377l175.981-23.134M64.454 297.464l172.165-23.006M71.613 317.551l168.349-22.877M78.773 337.638l164.533-22.748"/>
                </g>
            </g>
            <path d="M283.673 160.958c-12.411-89.034-74.495-154.6-130.61-149.557l-.007-.007-.276.031a70.39 70.39 0 0 0-2.783.32l-35.326 4.045 5.672 11.426c-35.895 29.373-55.371 93.552-45.557 163.962 9.03 64.779 40.417 117.354 78.459 139.257l1.084 15.666 34.177-3.983c2.254-.098 4.5-.31 6.733-.634.952-.14 1.898-.3 2.839-.482h.042c55.745-10.678 98.029-90.547 85.553-180.044z" fill="url(#j)"/>
            <ellipse fill="#E6BC7B" fill-rule="nonzero" transform="rotate(-7.655 139.08 180.6)" cx="139.079" cy="180.601" rx="117.193" ry="166.421"/>
            <path stroke="#BF9162" stroke-width="7.949" stroke-linecap="round" stroke-linejoin="round" d="m140.963 88.6 5.821 41.589-28.936 4.214-5.821-41.589M137.194 272.609l-5.821-41.589 28.936-4.214 5.821 41.589"/>
            <path stroke="#BF9162" stroke-width="7.949" stroke-linecap="round" stroke-linejoin="round" d="m124.439 181.483 61.586-8.97 6.934 49.537-94.238 13.725-13.524-96.621 94.237-13.725"/>
            <path d="M45.265 194.266C34.958 120.634 66.03 51.286 117.842 43.74c51.812-7.546 104.744 49.568 115.05 123.2 10.306 73.632-23.321 143.189-75.133 150.735-51.812 7.546-102.188-49.775-112.494-123.409z" stroke="#BF9162" stroke-width="7.949" stroke-linecap="round" stroke-linejoin="round"/>
            <path d="M33.98 195.709C22.529 113.89 57.409 36.779 115.438 28.328c58.029-8.451 117.234 54.96 128.684 136.78 11.45 81.82-26.291 159.167-84.32 167.618-58.029 8.451-114.372-55.197-125.822-137.017z" stroke="#E6BC7B" stroke-width="3.933" opacity=".44" style="mix-blend-mode:screen" stroke-linecap="round" stroke-linejoin="round"/>
            <path d="M216.195 167.2c10.288 69.546-22.655 133.462-64.2 135.8-41.545 2.338-89.3-51.851-95.472-118.928-4.115-43.621 17.069-126.366 67.489-126.366 71.188 3.03 83.95 78.63 83.95 78.63l-103.154 15.912 7.216 66.666 64.388-8.231-3.567-21.947-48.833 6.584 1.646 9.053 38.683-5.212M121.958 163.903l90.945-11.934" stroke="#E6BC7B" stroke-width="3.135" opacity=".44" style="mix-blend-mode:screen" stroke-linecap="round" stroke-linejoin="round"/>
            <path stroke="#E6BC7B" stroke-width="3.135" opacity=".44" style="mix-blend-mode:screen" stroke-linecap="round" stroke-linejoin="round" d="m177.046 238.121 5.13 36.48 18.655-40.054zM200.832 167.058l4.973 37.071M146.784 241.406l7.409 49.931M93.014 249.707l26.063-3.089 4.938 34.019zM81.491 229.335l-9.533-73.147M80.12 122.615l23.319-3.567-4.664-30.452zM123.383 73.623l6.023 40.486M156.937 81.188l4.389 30.309 22.5-3.423z"/>
            <g transform="translate(20 11)">
                <mask id="l" fill="#fff">
                    <use xlink:href="#k"/>
                </mask>
                <g mask="url(#l)" opacity=".55">
                    <path transform="rotate(-.688 -18653.972 18063.804)" d="M3.56 3.597h567.978V515.37H3.56z" style="mix-blend-mode:lighten"/>
                </g>
            </g>
        </g>
    </g>
</svg>
