<svg width="156" height="38" viewBox="0 0 156 38" xmlns="http://www.w3.org/2000/svg">
    <g fill-rule="nonzero" fill="none">
        <path d="M50.114 4.758h-4.137V5.99h2.905a2.365 2.365 0 0 1-.63 1.406 2.927 2.927 0 0 1-2.142.857 3.08 3.08 0 0 1 0-6.16 2.536 2.536 0 0 1 2.09.911l.106.107.884-.897-.067-.094a3.413 3.413 0 0 0-1.312-.923 4.115 4.115 0 0 0-1.7-.349 4.325 4.325 0 0 0 0 8.65A4.054 4.054 0 0 0 49.15 8.28a3.779 3.779 0 0 0 1.044-2.785 3.47 3.47 0 0 0-.067-.63l-.013-.107zm1.285 4.566h4.968V8.065H52.71V5.79h3.294V4.557h-3.294V2.281h3.656V1.022h-4.968v8.302zM57.17 2.28h2.25v7.043h1.298V2.28h2.236V1.022H57.17v1.26zm9.52 7.043h1.299V1.022H66.69v8.302zm2.33-7.043h2.25v7.043h1.298V2.28h2.236V1.022H69.02v1.26zM82.182.848a4.04 4.04 0 0 0-3.04 1.259 4.467 4.467 0 0 0 0 6.132 4.3 4.3 0 0 0 6.079 0 4.467 4.467 0 0 0 0-6.132A4.082 4.082 0 0 0 82.18.848zm0 7.405a2.83 2.83 0 0 1-2.09-.87 3.276 3.276 0 0 1 0-4.42 2.946 2.946 0 0 1 4.178 0 3.276 3.276 0 0 1 0 4.42 2.83 2.83 0 0 1-2.088.87zm10.604-7.23v4.833l.027 1.138-3.723-5.972h-1.459v8.302h1.299V4.182l-.04-1.124 3.87 6.199.04.067h1.285V1.022h-1.299zM77.803 20.905a5.697 5.697 0 1 0 5.717 5.69 5.609 5.609 0 0 0-5.717-5.69zm0 9.145a3.456 3.456 0 1 1 3.214-3.455 3.291 3.291 0 0 1-3.214 3.455zm-12.479-9.145a5.697 5.697 0 1 0 5.718 5.69 5.617 5.617 0 0 0-5.718-5.69zm0 9.145a3.456 3.456 0 1 1 3.214-3.455 3.291 3.291 0 0 1-3.214 3.455zM50.49 22.66v2.41h5.784a5.046 5.046 0 0 1-1.312 3.04 5.917 5.917 0 0 1-4.472 1.767 6.427 6.427 0 1 1 0-12.854c1.625-.02 3.193.6 4.365 1.727l1.7-1.7a8.435 8.435 0 0 0-6.065-2.437 8.845 8.845 0 1 0 0 17.687 8.12 8.12 0 0 0 6.172-2.477 8.022 8.022 0 0 0 2.09-5.664 8.398 8.398 0 0 0-.121-1.5h-8.141zm60.667 1.874a5.283 5.283 0 0 0-4.873-3.628 5.415 5.415 0 0 0-5.37 5.69 5.67 5.67 0 0 0 10.39 3.174l-1.94-1.286a3.256 3.256 0 0 1-2.8 1.567 2.876 2.876 0 0 1-2.757-1.728l7.618-3.146-.268-.643zm-7.765 1.902a3.134 3.134 0 0 1 2.985-3.334 2.186 2.186 0 0 1 2.103 1.218l-5.088 2.116zm-6.186 5.516h2.503V15.215h-2.503v16.737zm-4.097-9.774h-.094a3.936 3.936 0 0 0-3-1.272 5.703 5.703 0 0 0 0 11.394 3.859 3.859 0 0 0 3-1.299h.094v.817c0 2.183-1.165 3.347-3.04 3.347a3.156 3.156 0 0 1-2.879-2.021l-2.169.897a5.407 5.407 0 0 0 5.048 3.374c2.932 0 5.41-1.727 5.41-5.932v-10.23h-2.37v.925zm-2.88 7.873a3.461 3.461 0 0 1 0-6.896 3.473 3.473 0 0 1 0 6.896zm32.658-14.836h-5.999v16.737h2.504v-6.347h3.495a5.203 5.203 0 1 0 0-10.39zm.053 8.06h-3.548v-5.73h3.548a2.867 2.867 0 1 1 0 5.73zm15.451-2.396a4.676 4.676 0 0 0-4.458 2.557l2.21.924a2.383 2.383 0 0 1 2.289-1.218 2.41 2.41 0 0 1 2.624 2.155v.161a5.591 5.591 0 0 0-2.61-.643c-2.384 0-4.821 1.313-4.821 3.776a3.868 3.868 0 0 0 4.164 3.682 3.544 3.544 0 0 0 3.187-1.647h.08v1.3h2.41v-6.414c0-2.973-2.223-4.633-5.075-4.633zm-.307 9.172a1.74 1.74 0 0 1-1.955-1.42c0-1.298 1.419-1.794 2.65-1.794a4.447 4.447 0 0 1 2.277.563 3.022 3.022 0 0 1-2.972 2.65zm14.166-8.81-2.866 7.257h-.08l-2.973-7.258h-2.69l4.458 10.15-2.544 5.637h2.61l6.87-15.787h-2.785zm-22.495 10.711h2.49V15.215h-2.49v16.737z" fill="#222"/>
        <path d="m23.2 13.822 5.224 2.831c.782.447 1.341 1.341 1.341 2.235 0 .894-.447 1.788-1.34 2.235L4.51 34.31c-.335.224-.782.335-1.229.335-.447 0-.894-.111-1.34-.335a2.253 2.253 0 0 1-.458-.346L23.2 13.823z" fill="#F72F4B"/>
        <path d="m23.2 13.822 5.224 2.831c.782.447 1.341 1.341 1.341 2.235 0 .894-.447 1.788-1.34 2.235l-5.28 2.911-5.506-5.055 5.56-5.157z" fill="#FDC601"/>
        <path d="M4.51 3.69 23.2 13.823 1.55 34.025c-.538-.487-.838-1.219-.838-1.95V5.924c0-.893.447-1.787 1.23-2.234a2.63 2.63 0 0 1 2.57 0z" fill="#02EA75"/>
        <path d="m1.632 3.903 16.041 15.07L1.54 34.015c-.532-.486-.828-1.214-.828-1.942V5.926c0-.77.33-1.538.921-2.023z" fill="#00CEFF"/>
    </g>
</svg>
