<svg width="537" height="473" viewBox="0 0 537 473" xmlns="http://www.w3.org/2000/svg" xmlns:xlink="http://www.w3.org/1999/xlink">
    <defs>
        <path d="M13.85 25.674v-1.818H5.555V8.88H3.43v16.794h10.42zm15.078 0v-1.818h-8.5v-6.093h6.964v-1.817h-6.963v-5.248h8.243V8.88H18.278v16.794h10.65zm10.752 0L45.005 8.88h-2.202l-2.688 9.062c-.563 1.972-.998 3.584-1.613 5.53H38.4c-.614-1.946-1.024-3.558-1.613-5.53L34.1 8.88h-2.304l5.376 16.794h2.509zm19.968 0v-1.818h-8.5v-6.093h6.964v-1.817h-6.963v-5.248h8.243V8.88H48.998v16.794h10.65zm15.642 0v-1.818h-8.295V8.88H64.87v16.794h10.42zm24.576.307c3.276 0 5.632-1.843 5.632-6.656V8.88h-2.074v10.496c0 3.456-1.536 4.71-3.558 4.71-1.997 0-3.508-1.254-3.508-4.71V8.88h-2.176v10.445c0 4.813 2.381 6.656 5.684 6.656zm12.416-.307v-6.656h2.918c3.686 0 6.22-1.639 6.22-5.197 0-3.687-2.508-4.941-6.22-4.941h-5.069v16.794h2.15zm2.662-8.397h-2.662V10.62h2.662c2.893 0 4.326.793 4.326 3.2 0 2.38-1.408 3.456-4.326 3.456z" id="a"/>
        <path d="M4.147 23v-8.78c0-1.742-.205-3.534-.281-5.249h.05l1.614 3.482L10.906 23h2.355V6.206h-2.048v8.704c0 1.767.205 3.661.281 5.325h-.05L9.83 16.754 4.454 6.206H2.1V23h2.048zm16.768 0v-7.5h6.912v-1.818h-6.912V8.024h8.167V6.206H18.765V23h2.15zm18.56 0V8.024h5.555V6.206H31.77v1.818h5.555V23h2.15zm30.592.307c2.176 0 3.968-.87 5.018-1.945v-7.066H69.76v1.766h3.328v4.378c-.614.614-1.715.973-2.893.973-3.277 0-5.145-2.637-5.145-6.861 0-4.173 2.048-6.758 5.196-6.758 1.613 0 2.612.665 3.405 1.51l1.229-1.357C73.933 6.95 72.474 5.9 70.246 5.9c-4.352 0-7.45 3.277-7.45 8.704 0 5.479 3.047 8.704 7.271 8.704zM90.368 23v-1.818h-8.5V15.09h6.964v-1.818h-6.963V8.024h8.243V6.206H79.718V23h10.65zM96 23v-8.397c0-1.638-.205-4.505-.358-5.939h.05l.974 3.277 2.355 6.605h1.536l2.406-6.605.947-3.277h.077c-.102 1.434-.358 4.3-.358 5.94V23h2.048V6.206h-2.611l-2.381 7.168-.794 2.714h-.102l-.82-2.714-2.355-7.168h-2.61V23H96zM7.808 51.307c3.686 0 5.94-2.125 5.94-4.787 0-2.483-1.64-3.66-3.713-4.48L7.68 40.99l-.332-.13-.333-.135c-1.212-.503-2.33-1.135-2.33-2.5 0-1.51 1.305-2.431 3.251-2.431 1.74 0 3.02.588 4.122 1.561l1.126-1.382c-1.229-1.229-3.072-2.074-5.171-2.074-3.2 0-5.504 1.895-5.504 4.455 0 2.483 1.945 3.66 3.61 4.326l2.431 1.075c1.69.717 2.996 1.229 2.996 3.021 0 1.536-1.332 2.637-3.636 2.637-1.894 0-3.635-.82-4.915-2.074l-1.28 1.485c1.51 1.51 3.635 2.483 6.093 2.483zm15.232 0c3.789 0 6.451-3.277 6.451-8.78 0-5.428-2.662-8.628-6.451-8.628-3.789 0-6.451 3.2-6.451 8.627 0 5.504 2.662 8.781 6.451 8.781zm0-1.894c-2.534 0-4.224-2.586-4.224-6.887 0-4.224 1.69-6.732 4.224-6.732 2.534 0 4.224 2.508 4.224 6.732 0 4.301-1.69 6.887-4.224 6.887zm16.666 1.894c2.227 0 3.89-.896 5.196-2.432l-1.228-1.305c-1.05 1.177-2.228 1.843-3.764 1.843-3.2 0-5.299-2.637-5.299-6.861 0-4.173 2.1-6.758 5.3-6.758 1.407 0 2.508.588 3.379 1.51l1.228-1.357c-.998-1.075-2.585-2.048-4.608-2.048-4.377 0-7.526 3.303-7.526 8.704 0 5.479 3.174 8.704 7.322 8.704zM50.739 51v-5.35l2.894-3.459L58.496 51h2.432l-5.939-10.429 5.325-6.365h-2.458l-7.04 8.397h-.077v-8.397h-2.176V51h2.176zm24.269 0v-1.818h-8.5V43.09h6.964v-1.818h-6.963v-5.248h8.243v-1.818H64.358V51h10.65zm10.547 0V36.024h5.555v-1.818H77.85v1.818h5.555V51h2.15z" id="b"/>
        <path d="M66.968 16.578c.711 0 1.393-.282 1.897-.784L81.83 2.838a1.342 1.342 0 0 0-.948-2.29H15.266c-.71 0-1.393.282-1.896.785L.405 14.288a1.342 1.342 0 0 0 .948 2.29h65.615z" id="f"/>
        <path d="M66.968 16.178c.711 0 1.393-.282 1.897-.784L81.83 2.438a1.342 1.342 0 0 0-.948-2.29H15.266c-.71 0-1.393.282-1.896.785L.405 13.888a1.342 1.342 0 0 0 .948 2.29h65.615z" id="g"/>
        <path d="M80.88 16.133a1.342 1.342 0 0 0 .948-2.29L68.862.886a2.685 2.685 0 0 0-1.896-.785H1.353a1.342 1.342 0 0 0-.948 2.29L13.37 15.349a2.682 2.682 0 0 0 1.896.785H80.88z" id="h"/>
        <path d="M4.147 25v-8.78c0-1.742-.205-3.534-.281-5.249h.05l1.614 3.482L10.906 25h2.355V8.206h-2.048v8.704c0 1.767.205 3.661.281 5.325h-.05L9.83 18.754 4.454 8.206H2.1V25h2.048zm16.768 0v-7.5h6.912v-1.818h-6.912v-5.658h8.167V8.206H18.765V25h2.15zm18.56 0V10.024h5.555V8.206H31.77v1.818h5.555V25h2.15zM2.995 57l1.601-5.094h6.093L12.262 57h2.304L8.91 40.206H6.45L.794 57h2.201zm7.156-6.835H5.143l.796-2.535a163.762 163.762 0 0 0 1.664-5.657h.103c.512 1.945 1.075 3.789 1.664 5.657l.781 2.535zm14.195 7.142c2.227 0 3.89-.896 5.196-2.432l-1.228-1.305c-1.05 1.177-2.228 1.843-3.764 1.843-3.2 0-5.299-2.637-5.299-6.861 0-4.173 2.1-6.758 5.3-6.758 1.407 0 2.508.588 3.379 1.51l1.228-1.357c-.998-1.075-2.585-2.048-4.608-2.048-4.377 0-7.526 3.303-7.526 8.704 0 5.479 3.174 8.704 7.322 8.704zM34.918 57v-7.885h6.964V57h2.176V40.206h-2.176v7.015h-6.964v-7.015h-2.176V57h2.176zm24.09 0v-1.818h-4.173V42.024h4.173v-1.818H48.512v1.818h4.173v13.158h-4.173V57h10.496zm16 0v-1.818h-8.5V49.09h6.964v-1.818h-6.963v-5.248h8.243v-1.818H64.358V57h10.65zm10.752 0 5.325-16.794h-2.202l-2.688 9.063c-.563 1.971-.998 3.584-1.613 5.53h-.102c-.614-1.946-1.024-3.559-1.613-5.53l-2.688-9.063h-2.304L83.251 57h2.509zm19.968 0v-1.818h-8.5V49.09h6.964v-1.818h-6.963v-5.248h8.243v-1.818H95.078V57h10.65zm5.632 0v-8.397c0-1.638-.205-4.505-.358-5.939h.05l.974 3.277 2.355 6.605h1.536l2.406-6.605.947-3.277h.077c-.102 1.434-.358 4.3-.358 5.94V57h2.048V40.206h-2.611l-2.381 7.168-.794 2.714h-.102l-.82-2.714-2.355-7.168h-2.61V57h1.996zm25.088 0v-1.818h-8.5V49.09h6.964v-1.818h-6.963v-5.248h8.243v-1.818h-10.394V57h10.65zm5.94 0v-8.78c0-1.742-.206-3.534-.282-5.249h.05l1.614 3.482L149.146 57h2.355V40.206h-2.048v8.704c0 1.767.205 3.661.281 5.325h-.05l-1.614-3.481-5.376-10.548h-2.355V57h2.048zm19.967 0V42.024h5.555v-1.818h-13.26v1.818h5.555V57h2.15zM7.68 89c3.763 0 6.323-1.613 6.323-4.915 0-2.304-1.433-3.635-3.891-4.02v-.102c1.997-.512 2.944-1.997 2.944-3.66 0-2.945-2.33-4.097-5.76-4.097H2.534V89H7.68zm-.742-9.728H4.659v-5.274H7.04c2.586 0 3.917.666 3.917 2.484 0 1.868-1.152 2.79-4.02 2.79zm.435 7.936H4.659v-6.144h2.714c2.944 0 4.531.845 4.531 2.918 0 2.279-1.664 3.226-4.531 3.226zM18.355 89l1.601-5.094h6.093L27.622 89h2.304L24.27 72.206H21.81L16.154 89h2.201zm7.156-6.835h-5.008l.796-2.535a163.762 163.762 0 0 0 1.664-5.657h.103c.512 1.945 1.075 3.789 1.664 5.657l.781 2.535zM37.197 89c4.94 0 7.68-3.123 7.68-8.474 0-5.324-2.74-8.32-7.783-8.32h-4.147V89h4.25zm-.256-1.766h-1.843V73.973h1.843c3.814 0 5.709 2.33 5.709 6.553 0 4.25-1.895 6.708-5.71 6.708zm17.766 2.073c2.176 0 3.968-.87 5.018-1.945v-7.066H54.4v1.766h3.328v4.378c-.614.614-1.715.973-2.893.973-3.277 0-5.145-2.637-5.145-6.861 0-4.173 2.048-6.758 5.196-6.758 1.613 0 2.612.665 3.405 1.51l1.229-1.357c-.947-.998-2.406-2.048-4.634-2.048-4.352 0-7.45 3.277-7.45 8.704 0 5.479 3.047 8.704 7.271 8.704zM75.008 89v-1.818h-8.5V81.09h6.964v-1.818h-6.963v-5.248h8.243v-1.818H64.358V89h10.65z" id="i"/>
        <path d="M4.71 25v-7.091h2.973L11.725 25h2.432l-4.263-7.33.193-.05c2.164-.601 3.583-2.142 3.583-4.678 0-3.507-2.483-4.736-5.888-4.736H2.534V25H4.71zm2.765-8.832H4.71v-6.22h2.765c2.611 0 4.045.793 4.045 2.994 0 2.15-1.434 3.226-4.045 3.226zM28.928 25v-1.818h-8.5V17.09h6.964v-1.818h-6.963v-5.248h8.243V8.206H18.278V25h10.65zm5.94 0v-8.78c0-1.742-.206-3.534-.282-5.249h.05l1.614 3.482L41.626 25h2.355V8.206h-2.048v8.704c0 1.767.205 3.661.281 5.325h-.05l-1.614-3.481-5.376-10.548H32.82V25h2.048zm19.967 0V10.024h5.555V8.206H47.13v1.818h5.555V25h2.15zm9.6 0 1.601-5.094h6.093L73.702 25h2.304L70.35 8.206H67.89L62.234 25h2.201zm7.156-6.835h-5.008l.796-2.535a163.762 163.762 0 0 0 1.664-5.657h.103c.512 1.945 1.075 3.789 1.664 5.657l.781 2.535zM90.65 25v-1.818h-8.295V8.206H80.23V25h10.42zM7.808 57.307c3.686 0 5.94-2.125 5.94-4.787 0-2.483-1.64-3.66-3.713-4.48L7.68 46.99l-.332-.13-.333-.135c-1.212-.503-2.33-1.135-2.33-2.5 0-1.51 1.305-2.431 3.251-2.431 1.74 0 3.02.588 4.122 1.561l1.126-1.382c-1.229-1.229-3.072-2.074-5.171-2.074-3.2 0-5.504 1.895-5.504 4.455 0 2.483 1.945 3.66 3.61 4.326l2.431 1.075c1.69.717 2.996 1.229 2.996 3.021 0 1.536-1.332 2.637-3.636 2.637-1.894 0-3.635-.82-4.915-2.074l-1.28 1.485c1.51 1.51 3.635 2.483 6.093 2.483zM24.115 57v-5.99l5.632-10.804h-2.201l-2.432 4.967c-.64 1.305-1.306 2.585-1.972 3.917h-.102c-.691-1.332-1.28-2.612-1.92-3.917l-2.509-4.967h-2.278l5.632 10.804V57h2.15zm14.413.307c3.686 0 5.94-2.125 5.94-4.787 0-2.483-1.64-3.66-3.713-4.48L38.4 46.99l-.332-.13-.333-.135c-1.212-.503-2.33-1.135-2.33-2.5 0-1.51 1.305-2.431 3.251-2.431 1.74 0 3.02.588 4.122 1.561l1.126-1.382c-1.229-1.229-3.072-2.074-5.171-2.074-3.2 0-5.504 1.895-5.504 4.455 0 2.483 1.945 3.66 3.61 4.326l2.431 1.075c1.69.717 2.996 1.229 2.996 3.021 0 1.536-1.332 2.637-3.636 2.637-1.894 0-3.635-.82-4.915-2.074l-1.28 1.485c1.51 1.51 3.635 2.483 6.093 2.483zM54.835 57V42.024h5.555v-1.818H47.13v1.818h5.555V57h2.15zm20.173 0v-1.818h-8.5V49.09h6.964v-1.818h-6.963v-5.248h8.243v-1.818H64.358V57h10.65zm5.632 0v-8.397c0-1.638-.205-4.505-.358-5.939h.05l.974 3.277 2.355 6.605h1.536l2.406-6.605.947-3.277h.077c-.102 1.434-.358 4.3-.358 5.94V57h2.048V40.206h-2.611l-2.381 7.168-.794 2.714h-.102l-.82-2.714-2.355-7.168h-2.61V57h1.996z" id="j"/>
        <path d="M189.44 57v-8.397c0-1.638-.205-4.505-.358-5.939h.05l.974 3.277 2.355 6.605h1.536l2.406-6.605.947-3.277h.077c-.102 1.434-.358 4.3-.358 5.94V57h2.048V40.206h-2.611l-2.381 7.168-.794 2.714h-.102l-.82-2.714-2.355-7.168h-2.61V57h1.996zm24.448 0v-1.818h-4.173V42.024h4.173v-1.818h-10.496v1.818h4.173v13.158h-4.173V57h10.496zm6.58 0v-8.78c0-1.742-.206-3.534-.282-5.249h.05l1.614 3.482L227.226 57h2.355V40.206h-2.048v8.704c0 1.767.205 3.661.281 5.325h-.05l-1.614-3.481-5.376-10.548h-2.355V57h2.048zm19.967 0V42.024h5.555v-1.818h-13.26v1.818h5.555V57h2.15zm26.112 0v-8.78c0-1.742-.205-3.534-.281-5.249h.05l1.614 3.482L273.306 57h2.355V40.206h-2.048v8.704c0 1.767.205 3.661.281 5.325h-.05l-1.614-3.481-5.376-10.548H264.5V57h2.048zm24.781 0v-1.818h-8.5V49.09h6.964v-1.818h-6.963v-5.248h8.243v-1.818h-10.394V57h10.65zm7.22 0 1.638-6.758c.256-1.024.41-1.997.588-3.021h.077c.154 1.024.359 1.997.615 3.02L303.104 57h2.662l2.458-16.82h-2.304l-1.178 10.574c-.153 1.382-.204 2.201-.307 3.865h-.102c-.307-1.664-.461-2.483-.82-3.865l-1.587-6.247h-2.048l-1.638 6.247a62.24 62.24 0 0 0-.82 3.865h-.076c-.077-1.664-.18-2.483-.333-3.891l-1.229-10.547h-2.406L295.936 57h2.611zm-105.14 32.307c3.686 0 5.94-2.125 5.94-4.787 0-2.483-1.64-3.66-3.713-4.48l-2.355-1.05-.332-.13-.333-.135c-1.212-.503-2.33-1.135-2.33-2.5 0-1.51 1.305-2.431 3.251-2.431 1.74 0 3.02.588 4.122 1.561l1.126-1.382c-1.229-1.229-3.072-2.074-5.171-2.074-3.2 0-5.504 1.895-5.504 4.455 0 2.483 1.945 3.66 3.61 4.326l2.431 1.075c1.69.717 2.996 1.229 2.996 3.021 0 1.536-1.332 2.637-3.636 2.637-1.894 0-3.635-.82-4.915-2.074l-1.28 1.485c1.51 1.51 3.635 2.483 6.093 2.483zm11.7-.307v-8.78c0-1.742-.206-3.534-.282-5.249h.05l1.614 3.482L211.866 89h2.355V72.206h-2.048v8.704c0 1.767.205 3.661.281 5.325h-.05l-1.614-3.481-5.376-10.548h-2.355V89h2.048zm24.78 0v-1.818h-8.5V81.09h6.964v-1.818h-6.963v-5.248h8.243v-1.818h-10.394V89h10.65zm4.787 0 1.601-5.094h6.093L243.942 89h2.304l-5.657-16.794h-2.458L232.474 89h2.201zm7.156-6.835h-5.008l.796-2.535a163.762 163.762 0 0 0 1.664-5.657h.103c.512 1.945 1.075 3.789 1.664 5.657l.781 2.535zM251.699 89v-5.35l2.894-3.459L259.456 89h2.432l-5.939-10.429 5.325-6.365h-2.458l-7.04 8.397h-.077v-8.397h-2.176V89h2.176zm24.269 0v-1.818h-8.5V81.09h6.964v-1.818h-6.963v-5.248h8.243v-1.818h-10.394V89h10.65zm6.502 0v-7.091h2.973L289.485 89h2.432l-4.263-7.33.193-.05c2.164-.601 3.583-2.142 3.583-4.678 0-3.507-2.483-4.736-5.888-4.736h-5.248V89h2.176zm2.765-8.832h-2.765v-6.22h2.765c2.611 0 4.045.793 4.045 2.994 0 2.15-1.434 3.226-4.045 3.226z" id="k"/>
        <path d="M12.928 23v-1.818H8.755V8.024h4.173V6.206H2.432v1.818h4.173v13.158H2.432V23h10.496zm6.58 0v-8.78c0-1.742-.206-3.534-.282-5.249h.05l1.614 3.482L26.266 23h2.355V6.206h-2.048v8.704c0 1.767.205 3.661.281 5.325h-.05l-1.614-3.481-5.376-10.548H17.46V23h2.048zm24.396-7.654v-1.588H32.896v1.588h11.008zM49.075 23l1.601-5.094h6.093L58.342 23h2.304L54.99 6.206H52.53L46.874 23h2.201zm7.156-6.835h-5.008l.796-2.535a163.762 163.762 0 0 0 1.664-5.657h.103c.512 1.945 1.075 3.789 1.664 5.657l.781 2.535zM66.201 23v-6.656h2.919c3.686 0 6.22-1.638 6.22-5.197 0-3.686-2.508-4.94-6.22-4.94h-5.069V23h2.15zm2.663-8.397h-2.662V7.947h2.662c2.893 0 4.326.794 4.326 3.2 0 2.381-1.408 3.456-4.326 3.456zM81.562 23v-6.656h2.918c3.686 0 6.22-1.638 6.22-5.197 0-3.686-2.508-4.94-6.22-4.94h-5.069V23h2.15zm2.662-8.397h-2.662V7.947h2.662c2.893 0 4.326.794 4.326 3.2 0 2.381-1.408 3.456-4.326 3.456zM8.755 51V36.024h5.555v-1.818H1.05v1.818h5.555V51h2.15zm11.315 0v-7.091h2.973L27.085 51h2.432l-4.263-7.33.193-.05c2.164-.601 3.583-2.142 3.583-4.678 0-3.507-2.483-4.736-5.888-4.736h-5.248V51h2.176zm2.765-8.832H20.07v-6.22h2.765c2.611 0 4.045.793 4.045 2.994 0 2.15-1.434 3.226-4.045 3.226zM33.715 51l1.601-5.094h6.093L42.982 51h2.304L39.63 34.206H37.17L31.514 51h2.201zm7.156-6.835h-5.008l.796-2.535a163.762 163.762 0 0 0 1.664-5.657h.103c.512 1.945 1.075 3.789 1.664 5.657l.781 2.535zM52.557 51c4.94 0 7.68-3.123 7.68-8.474 0-5.324-2.74-8.32-7.783-8.32h-4.147V51h4.25zm-.256-1.766h-1.843V35.973H52.3c3.814 0 5.709 2.33 5.709 6.553 0 4.25-1.895 6.708-5.71 6.708zM74.368 51v-1.818h-4.173V36.024h4.173v-1.818H63.872v1.818h4.173v13.158h-4.173V51h10.496zm6.58 0v-8.78c0-1.742-.206-3.534-.282-5.249h.05l1.614 3.482L87.706 51h2.355V34.206h-2.048v8.704c0 1.767.205 3.661.281 5.325h-.05l-1.614-3.481-5.376-10.548H78.9V51h2.048zm19.84.307c2.175 0 3.967-.87 5.017-1.945v-7.066h-5.325v1.766h3.328v4.378c-.614.614-1.715.973-2.893.973-3.277 0-5.145-2.637-5.145-6.861 0-4.173 2.048-6.758 5.196-6.758 1.613 0 2.612.665 3.405 1.51l1.229-1.357c-.947-.998-2.406-2.048-4.634-2.048-4.352 0-7.45 3.277-7.45 8.704 0 5.479 3.047 8.704 7.271 8.704z" id="l"/>
        <linearGradient x1="-34.5%" y1="168.6%" x2="65.5%" y2="168.6%" id="c">
            <stop stop-color="#F2757E" offset=".4%"/>
            <stop stop-color="#FED4DA" offset="37.6%"/>
            <stop stop-color="#F6B8EB" offset="81.5%"/>
            <stop stop-color="#A398EB" offset="99.9%"/>
        </linearGradient>
        <linearGradient x1="-39.9%" y1="151.4%" x2="60.1%" y2="151.4%" id="d">
            <stop stop-color="#27AAE1" offset=".4%"/>
            <stop stop-color="#00F1FF" offset="37.6%"/>
            <stop stop-color="#DFBDED" offset="81.5%"/>
            <stop stop-color="#FED4DA" offset="99.9%"/>
        </linearGradient>
        <linearGradient x1="-10.5%" y1="201.9%" x2="-77.6%" y2="-13.4%" id="e">
            <stop stop-color="#27AAE1" offset=".4%"/>
            <stop stop-color="#00F1FF" offset="37.6%"/>
            <stop stop-color="#DFBDED" offset="81.5%"/>
            <stop stop-color="#FED4DA" offset="99.9%"/>
        </linearGradient>
    </defs>
    <g transform="translate(-3 -5)" fill="none" fill-rule="evenodd">
        <g transform="translate(0 34.4)" fill-rule="nonzero">
            <use fill="#000" xlink:href="#a"/>
            <use fill="#231F20" xlink:href="#a"/>
        </g>
        <g transform="translate(281.6)" fill-rule="nonzero">
            <use fill="#000" xlink:href="#b"/>
            <use fill="#231F20" xlink:href="#b"/>
        </g>
        <path d="M50.498 128.605 47.28 242.089 29.6 270.056l9.645 32.47 42.436 11.252 136.309 3.215 63.975 6.751 158.84-6.97 44.337-37.716-.64-26.684-17.507-15.57-115.222-37.64-6.151-10.443-15.556-.307-8.56-5.802s-13.772-7.371-15.003-7.624c-1.231-.253-13.064-3.744-13.064-3.744l-12.273-8.58-12.383-5.77s-10.93-6.912-11.091-7.395c-.16-.482-14.788-7.554-14.788-7.554l-26.52-18.645s-11.091.48-12.7-1.125c-1.607-1.605-27.486-20.575-27.486-20.575l-13.02 2.733-10.287 9.963-2.572 22.182 5.787 8.36-12.216 4.5-54.653-1.286-38.739-19.447z" fill="#FFF"/>
        <path fill="url(#c)" fill-rule="nonzero" d="m91.635 125.548-38.647 37.26 122.215 4.202 73.54 14.566-25.725-41.384z" transform="translate(29.6 101.6)"/>
        <path d="m187.916 134.329-12.698-12.216c-10.69-10.69 4.588-20.32 4.588-20.32M183.958 136.966l-35.222 16.026M197.257 144.19l-31.445 18.316M210.555 151.413l-27.667 20.609M223.853 158.636l-23.89 22.9M237.151 165.859l-20.112 25.191M250.449 173.082l-16.334 27.484M263.746 180.306 251.19 210.08M277.045 187.529l-8.779 32.065M290.343 194.752l-5.001 34.357M303.641 201.976l-1.223 36.649M316.939 209.199l2.555 38.94M330.238 216.422l6.332 41.232M343.535 223.646l10.11 43.523M356.834 230.869l13.887 45.814" stroke="#D1D3D4" stroke-width="2.143" stroke-linejoin="round"/>
        <path fill="url(#d)" fill-rule="nonzero" d="m117.258 49.976-57.745 50.11 169.37 14.304-110.45-65.552" transform="translate(29.6 101.6)"/>
        <path fill="url(#e)" d="m358.709 109.397 78.685 25.807-43.916 37.854-52.357 2.024z" transform="translate(29.6 101.6)"/>
        <g style="mix-blend-mode:multiply" stroke="#27AAE1" stroke-linejoin="round" stroke-width="2.143">
            <path d="m388.309 210.997 78.685 25.807M385.378 221.945l74.296 21.169M382.446 232.892l69.908 16.53M379.514 243.84l65.521 11.891M376.583 254.788l61.133 7.253M373.652 265.735l56.745 2.614M370.721 276.683l52.357-2.025"/>
        </g>
        <path stroke="#D1D3D4" stroke-width="2.143" stroke-linejoin="round" d="M48.8 236.738 31.031 266.48l6.263 36.907M62.216 247.491 49.86 269.106l7.051 40.11M76.04 258.904l-7.353 12.829 6.663 41.371M92.918 264.69l-5.405 9.668 5.887 39.725M111.564 265.656l-5.224 11.33 5.111 38.08M130.692 266.456l-5.526 13.151 4.336 36.432M150.142 267.102l-6.15 15.134 3.562 34.786M169.27 268.709l-6.45 16.153 2.593 30.462M189.36 265.118l-7.711 22.37 1.93 27.032M206.926 268.666l-6.453 21.448.945 24.085M224.496 272.216l-5.2 20.526.443 22.745M242.066 275.762l-3.94 19.6.183 23.977M259.634 279.309l-2.681 18.681-1.09 24.907M277.204 282.857l-3.29 41.02M49.758 154.904l48.866 38.498M51.446 140.678l56.324 44.317M62.377 133.686l54.54 42.902M102.884 149.76l23.179 18.421M121.53 149.438l13.679 10.336M104.853 203.006l31.345 25.557M122.225 204.442l26.909 25.592M139.597 205.878l22.472 25.625M156.968 207.314l18.036 25.659M174.34 208.75l13.6 25.693M191.711 210.186l9.164 25.727M209.083 211.623l4.728 25.76M226.455 213.059l.292 25.794M243.827 214.495l-4.145 25.827M261.198 215.931l-8.58 25.861"/>
        <path stroke="#231F20" stroke-width="1.019" d="m48.165 126.272 1.239 47.851-.602 62.615-17.768 29.743 6.263 36.907 45.127 12.946 125.76-2.499 63.695 10.424 168.93-7.484 46.498-35.586-.781-27.52-19.532-16.861-115.222-37.638-1.84-6.35-15.16-5.731-4.709 1.33-5.845-3.265-2.616-5.088-15.708-6.67-5.93 1.56-6.524-3.708-1.242-4.502-15.885-7.083-4.314 1.455-7.725-5.49-.293-3.54-14.008-8.18-4.035.16-28.368-20.606-11.52-.886-26.24-20.782-14.266 1.267-15.475 9.75-1.003 20.271 9.995 11.36-11.024 5.988-57.615-1.81z"/>
        <path stroke="#231F20" stroke-width="2.143" stroke-linejoin="round" d="m183.958 136.966 24.421-12.943 9.192-.56 28.367 20.607 18.044 8.016 4.144 6.486 13.04 4.096 15.482 8.77 24.952 8.627 8.462 8.353 14.347 2.462 3.855 6.268 8.566 33.722zM49.972 171.336l71.263 55.81-74.4 12.19z"/>
        <path stroke="#231F20" stroke-width="2.143" stroke-linejoin="round" d="m121.235 227.148-38.647 37.26-33.085-25.92z"/>
        <path stroke="#231F20" stroke-width="2.143" stroke-linejoin="round" d="m121.235 227.148 131.383 14.64 25.725 41.384-68.48-12.922-127.275-5.845zM148.033 150.434l-58.92 51.248-39.141-30.346-1.655-42.542 42.101 19.828zM148.736 152.992 370.72 276.683l-13.887-45.814-172.875-93.903z"/>
        <path stroke="#231F20" stroke-width="2.143" stroke-linejoin="round" d="m146.858 151.576-57.745 50.11L261.2 215.93z"/>
        <path stroke="#231F20" stroke-width="2.143" stroke-linejoin="round" d="m261.2 215.931-8.58 25.861-131.384-14.64-32.122-25.466z"/>
        <path stroke="#231F20" stroke-width="2.143" stroke-linejoin="round" d="m261.2 215.931 45.526 65.558-28.382 1.687-25.725-41.384z"/>
        <path stroke="#231F20" stroke-width="2.143" stroke-linejoin="round" d="m261.2 215.931 109.52 60.751-63.996 4.807zM348.267 197.146l22.454 79.537 17.588-65.685z"/>
        <path stroke="#231F20" stroke-width="2.143" stroke-linejoin="round" d="m370.72 276.683 52.357-2.025 43.916-37.853-78.685-25.807zM277.204 282.856l-3.29 41.02 14.726-.535 2.518-40.714zM303.993 281.73l-1.962 41.099 14.727-.535.808-41.596zM335.128 279.606l-1.79 43.223 14.727-.535.64-43.719zM364.974 277.154l-1.368 42.832 14.727-.535.125-42.865zM397.057 276.173l.949 42.045 15.498-.62-2.809-41.968z"/>
        <path stroke="#231F20" stroke-width="2.143" stroke-linejoin="round" d="m423.404 274.313 7.75 44.016 16.428-8.524-12.553-45.41zM446.24 254.733l16.997 44.377 18.598-14.413-26.037-38.023z"/>
        <path stroke="#231F20" stroke-width="2.143" fill="#72F596" fill-rule="nonzero" stroke-linejoin="round" d="m250.346 144.43-32.922 32.367 15.158 9.153 31.853-33.034zM278.16 160.776l-32.922 32.366 16.442 9.634 31.854-33.034zM306.506 174.99l-33.052 33.717 16.437 9.632 31.984-34.385zM335.706 188.348l-32.074 35.89 16.438 9.632 31.739-38.728z"/>
        <path stroke="#231F20" stroke-width="4.898" stroke-linejoin="round" d="m48.165 126.272 1.239 47.851-.602 62.615-17.768 29.743 6.263 36.907 45.127 12.946 125.76-2.499 63.695 10.424 168.93-7.484 46.498-35.586-.781-27.52-19.532-16.861-115.222-37.638-1.84-6.35-15.16-5.731-4.709 1.33-5.845-3.265-2.616-5.088-15.708-6.67-5.93 1.56-6.524-3.708-1.242-4.502-15.885-7.083-4.314 1.455-7.725-5.49-.293-3.54-14.008-8.18-4.035.16-28.368-20.606-11.52-.886-26.24-20.782-14.266 1.267-15.475 9.75-1.003 20.271 9.995 11.36-11.024 5.988-57.615-1.81z"/>
        <path stroke="#231F20" stroke-width="2.143" stroke-linejoin="round" d="m466.994 236.805-43.916 37.853-144.736 8.518-68.48-12.922-127.275-5.845L48.8 236.738 31.031 266.48l5.486 34.747 45.905 15.105 125.76-2.499 63.695 10.424 168.93-7.484 46.498-35.586-.782-27.52z"/>
        <path d="M215.208 224.154c.711 0 1.393-.282 1.897-.784l12.965-12.956a1.342 1.342 0 0 0-.948-2.29h-65.616c-.71 0-1.393.282-1.896.785l-12.965 12.955a1.342 1.342 0 0 0 .948 2.29h65.615z" fill="#72F596" fill-rule="nonzero"/>
        <path d="M215.208 224.154c.711 0 1.393-.282 1.897-.784l12.965-12.956a1.342 1.342 0 0 0-.948-2.29h-65.616c-.71 0-1.393.282-1.896.785l-12.965 12.955a1.342 1.342 0 0 0 .948 2.29h65.615z" stroke="#231F20" stroke-width="2.143" stroke-linejoin="round"/>
        <path d="M215.208 272.554c.711 0 1.393-.282 1.897-.784l12.965-12.956a1.342 1.342 0 0 0-.948-2.29h-65.616c-.71 0-1.393.282-1.896.785l-12.965 12.955a1.342 1.342 0 0 0 .948 2.29h65.615z" fill="#72F596" fill-rule="nonzero"/>
        <path d="M215.208 272.554c.711 0 1.393-.282 1.897-.784l12.965-12.956a1.342 1.342 0 0 0-.948-2.29h-65.616c-.71 0-1.393.282-1.896.785l-12.965 12.955a1.342 1.342 0 0 0 .948 2.29h65.615z" stroke="#231F20" stroke-width="2.143" stroke-linejoin="round"/>
        <path d="M229.12 248.509a1.342 1.342 0 0 0 .948-2.29l-12.966-12.956a2.685 2.685 0 0 0-1.896-.785h-65.613a1.342 1.342 0 0 0-.948 2.29l12.965 12.956a2.682 2.682 0 0 0 1.896.785h65.614z" fill="#72F596" fill-rule="nonzero"/>
        <path d="M229.12 248.509a1.342 1.342 0 0 0 .948-2.29l-12.966-12.956a2.685 2.685 0 0 0-1.896-.785h-65.613a1.342 1.342 0 0 0-.948 2.29l12.965 12.956a2.682 2.682 0 0 0 1.896.785h65.614z" stroke="#231F20" stroke-width="2.143" stroke-linejoin="round"/>
        <g fill-rule="nonzero">
            <g transform="translate(371.2 388)">
                <use fill="#000" xlink:href="#i"/>
                <use fill="#231F20" xlink:href="#i"/>
            </g>
        </g>
        <g transform="translate(259.2 247.2)" stroke="#231F20" stroke-linecap="round" stroke-width=".726">
            <circle cx="2.337" cy="2.128" r="1.971"/>
            <path d="m2.167 2.16 108.575 127.17h65.382"/>
        </g>
        <circle stroke="#231F20" stroke-width=".726" stroke-linecap="round" cx="225.2" cy="148.4" r="2"/>
        <path stroke="#231F20" stroke-width=".726" stroke-linecap="round" d="m225.6 148 58.009-85.6H348.8"/>
        <g fill-rule="nonzero">
            <g transform="translate(15.2 388)">
                <use fill="#000" xlink:href="#j"/>
                <use fill="#231F20" xlink:href="#j"/>
            </g>
            <g transform="translate(15.2 388)">
                <use fill="#000" xlink:href="#k"/>
                <use fill="#231F20" xlink:href="#k"/>
            </g>
        </g>
        <circle stroke="#231F20" stroke-width=".726" stroke-linecap="round" cx="128.4" cy="249.2" r="2"/>
        <path stroke="#231F20" stroke-width=".726" stroke-linecap="round" d="M128.8 249.6 80.725 376.8H15.2M191.943 287.571a1.972 1.972 0 1 1-3.943 0 1.972 1.972 0 0 1 3.943 0z"/>
        <path stroke="#231F20" stroke-width=".726" stroke-linecap="round" d="m189.801 287.6 14.393 127.17h65.382"/>
        <circle stroke="#231F20" stroke-width=".726" stroke-linecap="round" cx="226.8" cy="214" r="2"/>
        <path stroke="#231F20" stroke-width=".726" stroke-linecap="round" d="m227.2 214.4 143.929-64H499.2"/>
        <g fill-rule="nonzero">
            <g transform="translate(371.2 90.4)">
                <use fill="#000" xlink:href="#l"/>
                <use fill="#231F20" xlink:href="#l"/>
            </g>
        </g>
        <circle stroke="#231F20" stroke-width=".726" stroke-linecap="round" cx="134.8" cy="177.2" r="2"/>
        <path stroke="#231F20" stroke-width=".726" stroke-linecap="round" d="M135.2 176.8 87.369 75.2H4"/>
    </g>
</svg>
