<svg width="144" height="38" viewBox="0 0 144 38" xmlns="http://www.w3.org/2000/svg" xmlns:xlink="http://www.w3.org/1999/xlink">
    <defs>
        <path d="m42.552 33.016 1.474-4.048h6.754l1.474 4.048h2.574l-6.05-15.708H46.05L40 33.016h2.552zm7.502-6.028h-5.302l2.618-7.106h.088l2.596 7.106zm8.426 10.384v-6.028c.924 1.32 2.068 1.98 3.476 1.98 1.628 0 2.926-.594 3.85-1.782.858-1.1 1.298-2.486 1.298-4.158 0-1.76-.44-3.168-1.32-4.268-.968-1.188-2.266-1.782-3.938-1.782-1.54 0-2.728.55-3.52 1.672v-1.364h-2.178v15.73h2.332zm2.948-5.94c-.88 0-1.584-.352-2.112-1.034-.616-.748-.902-1.738-.902-2.948v-.198c0-1.166.242-2.112.726-2.816.55-.814 1.342-1.21 2.354-1.21 1.144 0 1.98.396 2.53 1.232.44.704.682 1.672.682 2.926 0 1.254-.264 2.222-.748 2.926-.55.748-1.386 1.122-2.53 1.122zm10.208 5.94v-6.028c.924 1.32 2.068 1.98 3.476 1.98 1.628 0 2.926-.594 3.85-1.782.858-1.1 1.298-2.486 1.298-4.158 0-1.76-.44-3.168-1.32-4.268-.968-1.188-2.266-1.782-3.938-1.782-1.54 0-2.728.55-3.52 1.672v-1.364h-2.178v15.73h2.332zm2.948-5.94c-.88 0-1.584-.352-2.112-1.034-.616-.748-.902-1.738-.902-2.948v-.198c0-1.166.242-2.112.726-2.816.55-.814 1.342-1.21 2.354-1.21 1.144 0 1.98.396 2.53 1.232.44.704.682 1.672.682 2.926 0 1.254-.264 2.222-.748 2.926-.55.748-1.386 1.122-2.53 1.122zm21.164 1.892c1.98 0 3.52-.396 4.62-1.188 1.1-.814 1.65-1.914 1.65-3.322 0-1.452-.682-2.574-2.024-3.388-.616-.374-2.002-.88-4.114-1.54-1.474-.44-2.376-.77-2.728-.968-.792-.418-1.166-.968-1.166-1.672 0-.792.33-1.364 1.012-1.716.55-.308 1.342-.462 2.376-.462 1.188 0 2.068.22 2.684.682.616.44 1.012 1.188 1.232 2.2h2.376c-.154-1.716-.77-2.97-1.87-3.784-1.034-.792-2.464-1.166-4.29-1.166-1.672 0-3.058.374-4.158 1.122-1.166.792-1.738 1.87-1.738 3.256 0 1.364.594 2.42 1.804 3.146.484.264 1.672.682 3.608 1.298 1.738.528 2.772.88 3.124 1.056.99.506 1.496 1.188 1.496 2.068 0 .704-.352 1.254-1.056 1.65-.704.396-1.65.616-2.838.616-1.32 0-2.288-.242-2.926-.726-.704-.528-1.144-1.43-1.32-2.662h-2.376c.132 1.98.836 3.432 2.134 4.356 1.078.748 2.574 1.144 4.488 1.144zm14.036-.308V31.08h-1.496c-.286 0-.484-.088-.616-.22-.132-.154-.198-.374-.198-.682v-6.6h2.596v-1.936h-2.596v-3.674l-2.332.968v2.706h-2.112v1.936h2.112v6.6c0 .902.198 1.584.638 2.068.44.506 1.166.77 2.134.77h1.87zm7.392.308c1.716 0 3.102-.594 4.158-1.738 1.012-1.1 1.518-2.53 1.518-4.246 0-1.738-.528-3.168-1.54-4.29-1.034-1.144-2.42-1.716-4.136-1.716-1.716 0-3.102.572-4.136 1.716-1.034 1.122-1.54 2.552-1.54 4.29 0 1.716.506 3.146 1.518 4.246 1.056 1.144 2.442 1.738 4.158 1.738zm0-1.914c-1.078 0-1.914-.44-2.508-1.276-.528-.726-.77-1.65-.77-2.794 0-1.144.242-2.09.77-2.816.594-.858 1.43-1.276 2.508-1.276s1.914.418 2.53 1.276c.528.726.792 1.672.792 2.816 0 1.122-.264 2.046-.792 2.794-.616.836-1.452 1.276-2.53 1.276zm10.23 1.606v-6.028c0-.99.286-1.804.88-2.42.55-.572 1.188-.858 1.892-.858.528 0 1.078.066 1.65.242V21.62c-.396-.198-.902-.286-1.474-.286-.704 0-1.32.198-1.848.638-.44.308-.814.77-1.1 1.386v-1.716h-2.332v11.374h2.332zm10.758.308c1.518 0 2.772-.44 3.762-1.298.792-.704 1.298-1.606 1.562-2.662h-2.332c-.308.66-.638 1.166-1.034 1.474-.506.374-1.166.572-1.98.572-.924 0-1.65-.308-2.178-.88-.528-.594-.814-1.452-.902-2.552h8.624c-.022-2.024-.484-3.608-1.364-4.752-.968-1.276-2.398-1.892-4.246-1.892-1.672 0-3.014.572-3.982 1.738-1.012 1.144-1.496 2.552-1.496 4.246 0 1.87.528 3.344 1.584 4.444.968 1.034 2.31 1.562 3.982 1.562zm3.08-7.106h-6.138c.132-.968.462-1.694.946-2.2.528-.528 1.21-.77 2.09-.77 1.848 0 2.882.99 3.102 2.97z" id="a"/>
        <path d="M43.84 8.736c1.344 0 2.376-.396 3.096-1.176.684-.744 1.032-1.788 1.032-3.108 0-1.344-.324-2.388-.96-3.108C46.312.552 45.292.168 43.936.168h-3.072v8.568h2.976zm-.168-.852h-1.824V1.02h1.932c1.128 0 1.944.288 2.472.876.492.552.744 1.404.744 2.556 0 1.116-.276 1.968-.804 2.544-.564.588-1.404.888-2.52.888zm8.316 1.02c.924 0 1.668-.324 2.232-.972.516-.6.78-1.368.78-2.292 0-.936-.264-1.704-.792-2.316-.552-.648-1.296-.96-2.22-.96-.936 0-1.668.312-2.22.96-.528.612-.792 1.38-.792 2.316 0 .924.264 1.692.792 2.292.552.648 1.284.972 2.22.972zm0-.804c-.66 0-1.176-.252-1.536-.756-.336-.456-.492-1.02-.492-1.704 0-.696.156-1.26.492-1.716.36-.504.876-.756 1.536-.756.648 0 1.164.252 1.548.756.324.456.492 1.02.492 1.716 0 .672-.168 1.248-.492 1.704-.384.504-.9.756-1.548.756zm6.588.636 1.464-4.992 1.44 4.992h.912l2.112-6.204h-1.056L61.924 7.56l-1.44-5.028h-.9l-1.44 5.028-1.524-5.028h-1.056l2.112 6.204h.9zm7.692 0V4.992c.036-.564.216-1.008.552-1.344a1.524 1.524 0 0 1 1.116-.468c1.08 0 1.632.6 1.632 1.812v3.744h.96V4.92c0-1.704-.78-2.556-2.316-2.556-.408 0-.78.096-1.116.288-.336.18-.612.444-.828.792v-.912h-.96v6.204h.96zm6.888 0V0h-.948v8.736h.948zm4.452.168c.924 0 1.668-.324 2.232-.972.516-.6.78-1.368.78-2.292 0-.936-.264-1.704-.792-2.316-.552-.648-1.296-.96-2.22-.96-.936 0-1.668.312-2.22.96-.528.612-.792 1.38-.792 2.316 0 .924.264 1.692.792 2.292.552.648 1.284.972 2.22.972zm0-.804c-.66 0-1.176-.252-1.536-.756-.336-.456-.492-1.02-.492-1.704 0-.696.156-1.26.492-1.716.36-.504.876-.756 1.536-.756.648 0 1.164.252 1.548.756.324.456.492 1.02.492 1.716 0 .672-.168 1.248-.492 1.704-.384.504-.9.756-1.548.756zm6.084.804a3.15 3.15 0 0 0 1.548-.384c.384-.216.708-.492.948-.828v1.044h.9V4.752c0-.72-.192-1.284-.552-1.692-.432-.468-1.08-.696-1.968-.696-.744 0-1.332.144-1.788.432-.504.312-.828.804-.96 1.452l.948.072c.096-.396.3-.696.624-.888.288-.192.66-.276 1.116-.276 1.08 0 1.62.516 1.62 1.56v.324l-1.488.024c-.936.012-1.656.192-2.16.528-.576.36-.852.888-.852 1.596 0 .504.192.924.576 1.248.372.312.864.468 1.488.468zm.204-.756c-.384 0-.696-.096-.936-.276a.853.853 0 0 1-.348-.708c0-.9.696-1.356 2.088-1.38l1.428-.024v.528c0 .48-.228.912-.672 1.284a2.347 2.347 0 0 1-1.56.576zm7.26.756c.936 0 1.632-.396 2.064-1.188v1.02h.9V0h-.96v3.672c-.48-.876-1.164-1.308-2.052-1.308-.888 0-1.572.324-2.076.996-.468.6-.696 1.344-.696 2.256 0 .936.228 1.704.696 2.304.504.648 1.212.984 2.124.984zm.12-.792c-.672 0-1.176-.252-1.512-.732-.3-.432-.444-1.02-.444-1.764s.144-1.32.456-1.74c.336-.48.852-.72 1.536-.72.552 0 1.008.216 1.356.672.336.444.516 1.032.516 1.752v.12c0 .696-.156 1.26-.456 1.692-.348.48-.828.72-1.452.72zm11.1.792c.924 0 1.668-.324 2.232-.972.516-.6.78-1.368.78-2.292 0-.936-.264-1.704-.792-2.316-.552-.648-1.296-.96-2.22-.96-.936 0-1.668.312-2.22.96-.528.612-.792 1.38-.792 2.316 0 .924.264 1.692.792 2.292.552.648 1.284.972 2.22.972zm0-.804c-.66 0-1.176-.252-1.536-.756-.336-.456-.492-1.02-.492-1.704 0-.696.156-1.26.492-1.716.36-.504.876-.756 1.536-.756.648 0 1.164.252 1.548.756.324.456.492 1.02.492 1.716 0 .672-.168 1.248-.492 1.704-.384.504-.9.756-1.548.756zm5.22.636V4.992c.036-.564.216-1.008.552-1.344a1.524 1.524 0 0 1 1.116-.468c1.08 0 1.632.6 1.632 1.812v3.744h.96V4.92c0-1.704-.78-2.556-2.316-2.556-.408 0-.78.096-1.116.288-.336.18-.612.444-.828.792v-.912h-.96v6.204h.96zm12.78 0v-.804h-.792c-.216 0-.372-.06-.456-.156-.096-.096-.132-.264-.132-.492V3.336h1.536v-.804h-1.536V.528l-.948.396v1.608H116.8v.804h1.248v3.948c0 .468.096.816.3 1.056.216.264.588.396 1.092.396h.936zm2.184 0v-3.54c0-.576.156-1.068.48-1.452.312-.384.708-.576 1.188-.576.516 0 .912.156 1.2.468.264.312.408.756.408 1.332v3.768h.96V4.824c0-.792-.192-1.404-.576-1.824-.384-.432-.948-.636-1.668-.636-.42 0-.792.096-1.128.288-.36.204-.648.504-.864.9V0h-.96v8.736h.96zm8.304.168c.804 0 1.464-.24 1.98-.696.42-.384.696-.864.84-1.464h-.96c-.156.432-.36.756-.624.972-.312.252-.732.384-1.236.384-.588 0-1.056-.192-1.392-.576-.336-.384-.516-.924-.564-1.62h4.896c-.024-1.08-.264-1.932-.72-2.532-.504-.672-1.26-1.008-2.256-1.008-.9 0-1.608.324-2.136.972-.528.612-.78 1.38-.78 2.292 0 1.008.264 1.8.816 2.4.528.576 1.248.876 2.136.876zm1.944-3.744h-3.876c.06-.612.252-1.092.588-1.452.336-.36.78-.54 1.332-.54 1.176 0 1.836.66 1.956 1.992z" id="b"/>
    </defs>
    <g fill-rule="nonzero" fill="none">
        <path d="M24.806 23.054c.929 1.245 1.993 2.05 3.194 2.415-.52 1.524-1.348 3.112-2.48 4.764-1.745 2.49-3.467 3.735-5.166 3.735-.634 0-1.574-.204-2.82-.612-1.155-.408-2.163-.612-3.024-.612-.86 0-1.812.215-2.855.644-1.087.408-1.982.612-2.684.612-2.039 0-4.044-1.642-6.015-4.926C.986 25.834 0 22.646 0 19.513c0-2.897.747-5.269 2.243-7.115C3.783 10.553 5.686 9.63 7.95 9.63c.499 0 1.054.059 1.666.177a7.627 7.627 0 0 1 1.902.66c.703.364 1.28.617 1.734.756.452.14.804.21 1.053.21.295 0 .747-.065 1.36-.194a6.479 6.479 0 0 0 1.834-.708 14.22 14.22 0 0 1 1.699-.773A4.276 4.276 0 0 1 20.66 9.5c1.586 0 3.013.408 4.282 1.224.68.429 1.37 1.062 2.072 1.9-1.042.858-1.8 1.609-2.276 2.253-.884 1.202-1.326 2.51-1.326 3.927 0 1.568.465 2.984 1.394 4.25zM17.976 8.02c-.793.708-1.518 1.17-2.175 1.384a7.245 7.245 0 0 1-.867.178c-.351.053-.753.102-1.206.145.023-1.889.544-3.52 1.563-4.894 1.02-1.373 2.696-2.318 5.03-2.833.045.215.079.365.101.45v.355c0 .772-.192 1.642-.577 2.608-.408.944-1.031 1.813-1.87 2.607z" fill="#231F20"/>
        <g>
            <use fill="#000" xlink:href="#a"/>
            <use fill="#231F20" xlink:href="#a"/>
        </g>
        <g>
            <use fill="#000" xlink:href="#b"/>
            <use fill="#231F20" xlink:href="#b"/>
        </g>
    </g>
</svg>
