<svg width="366" height="502" viewBox="0 0 366 502" xmlns="http://www.w3.org/2000/svg" xmlns:xlink="http://www.w3.org/1999/xlink">
    <defs>
        <path id="a" d="M365.874 502H.562V.6h329.955l35.357 33.455z"/>
    </defs>
    <g fill="none" fill-rule="evenodd">
        <mask id="b" fill="#fff">
            <use xlink:href="#a"/>
        </mask>
        <path fill="#F1F2F2" fill-rule="nonzero" mask="url(#b)" d="M.354.6V502h365.312V34.057L330.517.6z"/>
        <g mask="url(#b)" stroke="#E6E7E8" stroke-width=".344">
            <path d="M.562 4.809h365.312M.562 28.041h365.312M.562 51.274h365.312M.562 74.507h365.312M.562 97.739h365.312M.562 120.972h365.312M.562 144.205h365.312M.562 167.437h365.312M.562 190.67h365.312M.562 213.903h365.312M.562 237.135h365.312M.562 260.368h365.312M.562 283.601h365.312M.562 306.833h365.312M.562 330.066h365.312M.562 353.299h365.312M.562 376.531h365.312M.562 399.764h365.312M.562 422.996h365.312M.562 446.229h365.312M.562 469.462h365.312M.562 492.694h365.312M8.973 496.901V.603M32.206 496.901V.603M55.439 496.901V.603M78.671 496.901V.603M101.904 496.901V.603M125.137 496.901V.603M148.369 496.901V.603M171.602 496.901V.603M194.835 496.901V.603M218.067 496.901V.603M241.3 496.901V.603M264.533 496.901V.603M287.765 496.901V.603M310.998 496.901V.603M334.231 496.901V.603M357.463 496.901V.603"/>
        </g>
        <path fill="#E6E7E8" fill-rule="nonzero" mask="url(#b)" d="m330.517.6 35.149 33.455h-35.149z"/>
    </g>
</svg>
