<svg width="337" height="234" viewBox="0 0 337 234" xmlns="http://www.w3.org/2000/svg" xmlns:xlink="http://www.w3.org/1999/xlink">
    <defs>
        <path d="M56.524 38.145v-2.098c0-.471-.065-1.353-.11-1.777h.017l.286.995.579 1.647h.447l.588-1.647.287-.995h.021c-.034.424-.11 1.306-.11 1.777v2.098h.65v-4.651h-.82l-.608 1.898-.203.724h-.029l-.208-.724-.602-1.898h-.821v4.65h.636zm5.271.085c1.064 0 1.808-.89 1.808-2.432 0-1.516-.744-2.39-1.808-2.39s-1.808.874-1.808 2.39c0 1.542.744 2.432 1.808 2.432zm0-.624c-.646 0-1.072-.665-1.072-1.808 0-1.118.426-1.766 1.072-1.766.646 0 1.073.648 1.073 1.766 0 1.143-.427 1.808-1.073 1.808zm4.633.624a1.83 1.83 0 0 0 1.462-.676l-.402-.432c-.274.305-.588.484-.99.484-.839 0-1.394-.685-1.394-1.8 0-1.098.555-1.774 1.384-1.774.376 0 .666.154.903.397l.401-.447a1.807 1.807 0 0 0-1.304-.574c-1.222 0-2.12.91-2.12 2.418 0 1.53.91 2.404 2.06 2.404zm3.116-.085v-1.428l.731-.897 1.258 2.325h.8l-1.617-2.865 1.457-1.786h-.806l-1.8 2.215h-.023v-2.215h-.722v4.65h.722zm5.044.085c.965 0 1.589-.551 1.589-1.852v-2.884h-.688v2.922c0 .854-.372 1.19-.901 1.19-.524 0-.887-.336-.887-1.19v-2.922h-.719v2.884c0 1.3.635 1.852 1.606 1.852zm3.51-.085V36.37h.754c1.012 0 1.748-.461 1.748-1.475 0-1.05-.725-1.401-1.748-1.401h-1.468v4.65h.714zm.685-2.348h-.685v-1.73h.685c.738 0 1.109.208 1.109.828 0 .614-.36.902-1.109.902zM57.21 47.145c1.349 0 2.14-.835 2.14-2.347 0-1.507-.791-2.304-2.176-2.304H55.99v4.65h1.22zm-.083-.582h-.423v-3.488h.423c.971 0 1.487.568 1.487 1.723 0 1.16-.516 1.765-1.487 1.765zm6.31.582v-.601h-2.29v-1.529h1.877v-.6h-1.876v-1.32h2.218v-.601h-2.932v4.65h3.003zm2.643.085c1.055 0 1.685-.61 1.685-1.356 0-.68-.436-1.02-1.02-1.247l-.63-.278c-.41-.159-.811-.306-.811-.71 0-.38.329-.607.818-.607.475 0 .813.154 1.124.415l.368-.455a2.088 2.088 0 0 0-1.461-.584c-.918 0-1.57.549-1.57 1.273 0 .685.52 1.03.995 1.217l.656.287c.461.195.8.321.8.776 0 .374-.326.645-.915.645-.506 0-.975-.219-1.33-.551l-.418.491a2.445 2.445 0 0 0 1.71.684zm5.732-.085v-.601h-1.137v-3.45h1.137v-.6h-2.988v.6h1.137v3.45h-1.137v.6h2.988zm3.04.085c.602 0 1.112-.25 1.408-.545V44.68h-1.512v.584h.858v1.107c-.152.15-.424.235-.711.235-.863 0-1.344-.685-1.344-1.8 0-1.098.539-1.774 1.344-1.774.426 0 .686.171.9.397l.402-.447c-.27-.284-.683-.574-1.302-.574-1.206 0-2.087.902-2.087 2.418 0 1.53.87 2.404 2.045 2.404zm3.091-.085v-2.23c0-.5-.067-1.029-.095-1.514h.017l.434.978 1.357 2.766h.763v-4.651h-.68v2.213c0 .505.067 1.062.095 1.53h-.017l-.434-.979-1.357-2.764h-.763v4.65h.68z" id="dlf1a3mkca"/>
        <path d="M56.71 223.993v-.601h-1.138v-3.45h1.138v-.6h-2.989v.6h1.138v3.45H53.72v.6h2.989zm4.409 0v-.601h-2.29v-1.529h1.877v-.6h-1.877v-1.32h2.219v-.601h-2.932v4.65h3.003zm2.62.085c1.064 0 1.808-.89 1.808-2.432 0-1.516-.744-2.39-1.808-2.39-1.065 0-1.809.874-1.809 2.39 0 1.542.744 2.432 1.809 2.432zm0-.624c-.647 0-1.073-.665-1.073-1.808 0-1.118.426-1.766 1.073-1.766.646 0 1.072.648 1.072 1.766 0 1.143-.426 1.808-1.072 1.808zm3.403 1.675 2.332-6.179h-.616l-2.332 6.18h.616zm6.614-1.136v-.601h-1.138v-3.45h1.138v-.6h-2.989v.6h1.138v3.45h-1.138v.6h2.989zm2.444 0c1.348 0 2.14-.835 2.14-2.347 0-1.506-.792-2.304-2.177-2.304H74.98v4.65h1.22zm-.083-.582h-.424v-3.488h.424c.97 0 1.487.568 1.487 1.723 0 1.16-.516 1.765-1.487 1.765zm4.667.667c1.065 0 1.809-.89 1.809-2.432 0-1.516-.744-2.39-1.809-2.39-1.064 0-1.808.874-1.808 2.39 0 1.542.744 2.432 1.808 2.432zm0-.624c-.646 0-1.072-.665-1.072-1.808 0-1.118.426-1.766 1.072-1.766.647 0 1.073.648 1.073 1.766 0 1.143-.426 1.808-1.073 1.808z" id="zpem6jw5mb"/>
        <path d="M155.71 223.993v-.601h-1.138v-3.45h1.138v-.6h-2.989v.6h1.138v3.45h-1.138v.6h2.989zm4.409 0v-.601h-2.29v-1.529h1.877v-.6h-1.877v-1.32h2.219v-.601h-2.932v4.65h3.003zm2.62.085c1.064 0 1.808-.89 1.808-2.432 0-1.516-.744-2.39-1.808-2.39-1.065 0-1.809.874-1.809 2.39 0 1.542.744 2.432 1.809 2.432zm0-.624c-.647 0-1.073-.665-1.073-1.808 0-1.118.426-1.766 1.073-1.766.646 0 1.072.648 1.072 1.766 0 1.143-.426 1.808-1.072 1.808zm3.403 1.675 2.332-6.179h-.616l-2.332 6.18h.616zm6.614-1.136v-.601h-1.138v-3.45h1.138v-.6h-2.989v.6h1.138v3.45h-1.138v.6h2.989zm2.444 0c1.348 0 2.14-.835 2.14-2.347 0-1.506-.792-2.304-2.177-2.304h-1.183v4.65h1.22zm-.083-.582h-.424v-3.488h.424c.97 0 1.487.568 1.487 1.723 0 1.16-.516 1.765-1.487 1.765zm4.667.667c1.065 0 1.809-.89 1.809-2.432 0-1.516-.744-2.39-1.809-2.39-1.064 0-1.808.874-1.808 2.39 0 1.542.744 2.432 1.808 2.432zm0-.624c-.646 0-1.072-.665-1.072-1.808 0-1.118.426-1.766 1.072-1.766.647 0 1.073.648 1.073 1.766 0 1.143-.426 1.808-1.073 1.808zm-41.049 9.539.406-1.761c.067-.287.108-.567.152-.85h.022c.036.283.091.563.158.85l.408 1.76h.837l.654-4.656h-.737l-.277 2.813c-.034.383-.046.642-.069 1.095h-.028a16.275 16.275 0 0 0-.228-1.095l-.402-1.62h-.594l-.418 1.62a19.42 19.42 0 0 0-.227 1.095h-.023c-.017-.45-.04-.71-.075-1.101l-.288-2.807h-.776l.685 4.657h.82zm3.605 0 .4-1.332h1.618l.394 1.332h.762l-1.537-4.651h-.83l-1.537 4.65h.73zm1.849-1.901h-1.278l.19-.632c.152-.504.296-1.023.436-1.55h.028c.134.527.286 1.046.438 1.55l.186.632zm5.351 1.9v-.6h-2.239v-4.05h-.707v4.65h2.946zm4.262 0v-.6h-2.24v-4.05h-.707v4.65h2.947zm4.186 0v-.6h-2.29v-1.529h1.877v-.6h-1.876v-1.32h2.218v-.601h-2.932v4.65h3.003zm2.976 0v-4.05h1.502v-.6h-3.716v.6h1.501v4.05h.713zm8.175.086c.965 0 1.59-.551 1.59-1.852v-2.884h-.689v2.922c0 .854-.372 1.19-.9 1.19-.524 0-.888-.336-.888-1.19v-2.922h-.719v2.884c0 1.301.636 1.852 1.606 1.852zm3.51-.085v-1.775h.754c1.012 0 1.748-.461 1.748-1.475 0-1.05-.725-1.401-1.748-1.401h-1.467v4.65h.713zm.685-2.348h-.685v-1.73h.685c.738 0 1.11.208 1.11.828 0 .614-.36.902-1.11.902zm4.593 2.433c.601 0 1.112-.25 1.407-.545v-2.005h-1.512v.584h.858v1.107c-.152.15-.424.235-.71.235-.863 0-1.345-.685-1.345-1.8 0-1.098.54-1.774 1.344-1.774.426 0 .686.172.9.397l.403-.447c-.271-.284-.684-.574-1.303-.574-1.206 0-2.087.902-2.087 2.418 0 1.53.87 2.404 2.045 2.404zm3.225-.085v-1.89h.754l1.06 1.89h.803l-1.144-1.982.044-.013c.567-.184.943-.612.943-1.31 0-1.005-.72-1.346-1.674-1.346h-1.505v4.65h.72zm.701-2.462h-.7v-1.616h.7c.68 0 1.05.203 1.05.774 0 .56-.37.842-1.05.842zm3.102 2.462.4-1.332h1.618l.394 1.332h.761l-1.536-4.651h-.83l-1.537 4.65h.73zm1.849-1.901h-1.278l.19-.632c.152-.504.296-1.023.435-1.55h.029c.134.527.286 1.046.438 1.55l.186.632zm3.311 1.9c1.348 0 2.14-.834 2.14-2.346 0-1.506-.792-2.304-2.176-2.304h-1.184v4.65h1.22zm-.083-.58h-.424v-3.489h.424c.97 0 1.487.568 1.487 1.723 0 1.16-.516 1.765-1.487 1.765zm6.31.58v-.6h-2.29v-1.529h1.876v-.6h-1.876v-1.32h2.218v-.601h-2.931v4.65h3.002z" id="38wwek63oc"/>
        <path d="M244.74 223.993v-2.098c0-.471-.065-1.353-.11-1.777h.016l.286.995.58 1.647h.447l.588-1.647.286-.995h.022c-.034.424-.11 1.306-.11 1.777v2.098h.65v-4.651h-.821l-.608 1.898-.203.724h-.028l-.209-.724-.602-1.898h-.82v4.65h.635zm5.279.085c.965 0 1.59-.551 1.59-1.852v-2.884h-.689v2.922c0 .854-.372 1.19-.901 1.19-.523 0-.887-.336-.887-1.19v-2.922h-.719v2.884c0 1.301.635 1.852 1.606 1.852zm5.97-.085v-.601h-2.239v-4.05h-.707v4.65h2.946zm2.901 0v-4.05h1.502v-.601h-3.717v.6h1.502v4.05h.713zm5.4 0v-.601h-1.138v-3.45h1.138v-.6h-2.99v.6h1.138v3.45h-1.137v.6h2.989zm4.321-2.085v-.518h-3.11v.518h3.11zm3.079 2.17a1.83 1.83 0 0 0 1.461-.676l-.402-.432c-.274.305-.587.484-.99.484-.838 0-1.394-.685-1.394-1.8 0-1.098.556-1.774 1.384-1.774.376 0 .667.154.903.397l.402-.447a1.807 1.807 0 0 0-1.305-.574c-1.221 0-2.12.91-2.12 2.418 0 1.53.91 2.404 2.06 2.404zm3.011-.085v-2.121h1.757v2.12h.719v-4.65h-.72v1.903h-1.756v-1.903h-.719v4.65h.72zm3.918 0 .4-1.332h1.618l.394 1.332h.762l-1.537-4.651h-.83l-1.537 4.65h.73zm1.85-1.901h-1.278l.19-.632c.151-.504.295-1.023.435-1.55h.028c.134.527.286 1.046.438 1.55l.187.632zm5.128 1.9v-.6h-1.138v-3.45h1.138v-.6h-2.989v.6h1.138v3.45h-1.138v.6h2.989zm1.869 0v-2.23c0-.499-.067-1.028-.095-1.513h.017l.434.978 1.357 2.766h.762v-4.651h-.68v2.213c0 .505.068 1.062.096 1.53h-.017l-.434-.979-1.357-2.764h-.763v4.65h.68zm-33.185 9.086c.964 0 1.589-.551 1.589-1.852v-2.884h-.688v2.922c0 .854-.372 1.19-.901 1.19-.524 0-.887-.336-.887-1.19v-2.922h-.72v2.884c0 1.301.636 1.852 1.607 1.852zm3.51-.085v-1.775h.753c1.012 0 1.749-.461 1.749-1.475 0-1.05-.726-1.401-1.749-1.401h-1.467v4.65h.713zm.685-2.348h-.686v-1.73h.686c.737 0 1.109.208 1.109.828 0 .614-.36.902-1.11.902zm4.592 2.433c.602 0 1.112-.25 1.407-.545v-2.005h-1.512v.584h.859v1.107c-.152.15-.424.235-.711.235-.863 0-1.344-.685-1.344-1.8 0-1.098.539-1.774 1.343-1.774.426 0 .686.172.901.397l.402-.447c-.27-.284-.684-.574-1.303-.574-1.206 0-2.086.902-2.086 2.418 0 1.53.87 2.404 2.044 2.404zm3.226-.085v-1.89h.754l1.06 1.89h.802l-1.143-1.982.043-.013c.568-.184.943-.612.943-1.31 0-1.005-.72-1.346-1.673-1.346h-1.505v4.65h.719zm.7-2.462h-.7v-1.616h.7c.68 0 1.051.203 1.051.774 0 .56-.371.842-1.05.842zm3.103 2.462.4-1.332h1.617l.394 1.332h.762l-1.537-4.651h-.83l-1.537 4.65h.73zm1.849-1.901h-1.278l.19-.632c.151-.504.295-1.023.435-1.55h.028c.134.527.287 1.046.438 1.55l.187.632zm3.31 1.9c1.349 0 2.14-.834 2.14-2.346 0-1.506-.791-2.304-2.176-2.304h-1.184v4.65h1.22zm-.083-.58h-.424v-3.489h.424c.971 0 1.487.568 1.487 1.723 0 1.16-.516 1.765-1.487 1.765zm6.31.58v-.6h-2.29v-1.529h1.877v-.6h-1.877v-1.32h2.218v-.601h-2.93v4.65h3.002z" id="rqsg73tnmd"/>
        <path d="M162.178 38.145v-4.05h1.502v-.601h-3.717v.6h1.502v4.05h.713zm5.547 0v-.601h-2.29v-1.529h1.877v-.6h-1.877v-1.32h2.219v-.601h-2.932v4.65h3.003zm1.398 0 .4-1.332h1.618l.394 1.332h.761l-1.536-4.651h-.83l-1.537 4.65h.73zm1.849-1.901h-1.278l.19-.632c.152-.504.295-1.024.435-1.55h.029c.134.526.286 1.046.437 1.55l.187.632zm2.624 1.9v-2.097c0-.471-.064-1.353-.11-1.777h.017l.286.995.58 1.647h.446l.589-1.647.286-.995h.022c-.034.424-.11 1.306-.11 1.777v2.098h.65v-4.651h-.821l-.608 1.898-.203.724h-.028l-.209-.724-.602-1.898h-.82v4.65h.635zm-20.276 9c1.035 0 1.76-.44 1.76-1.363 0-.634-.384-.998-1.06-1.108v-.029c.551-.142.81-.562.81-1.011 0-.834-.669-1.14-1.623-1.14h-1.382v4.652h1.495zm-.2-2.717h-.588v-1.354h.612c.657 0 .99.171.99.635 0 .474-.292.72-1.014.72zm.115 2.138h-.703v-1.574h.703c.754 0 1.15.217 1.15.749 0 .577-.413.825-1.15.825zm4.333.665c.965 0 1.59-.551 1.59-1.852v-2.884h-.688v2.922c0 .854-.372 1.19-.902 1.19-.523 0-.886-.336-.886-1.19v-2.922h-.72v2.884c0 1.3.636 1.852 1.606 1.852zm5.748-.085v-.601h-1.138v-3.45h1.138v-.6h-2.989v.6h1.138v3.45h-1.138v.6h2.989zm4.484 0v-.601h-2.239v-4.05h-.707v4.65h2.946zm2.221 0c1.349 0 2.14-.835 2.14-2.347 0-1.507-.791-2.304-2.176-2.304H168.8v4.65h1.22zm-.083-.582h-.424v-3.488h.424c.971 0 1.487.568 1.487 1.723 0 1.16-.516 1.765-1.487 1.765zm6.162.582v-.601h-1.137v-3.45h1.137v-.6h-2.988v.6h1.137v3.45h-1.137v.6h2.988zm1.87 0v-2.23c0-.5-.068-1.029-.096-1.514h.017l.434.978 1.358 2.766h.762v-4.651h-.68v2.213c0 .505.068 1.062.096 1.53h-.017l-.434-.979-1.358-2.764h-.762v4.65h.68zm5.432.085c.601 0 1.112-.25 1.407-.545V44.68h-1.512v.584h.859v1.107c-.152.15-.425.235-.711.235-.863 0-1.345-.685-1.345-1.8 0-1.098.54-1.774 1.344-1.774.426 0 .686.171.901.397l.402-.447c-.27-.284-.684-.574-1.303-.574-1.206 0-2.087.902-2.087 2.418 0 1.53.87 2.404 2.045 2.404z" id="kmjw9ee1ee"/>
        <path d="m247.906 38.145.406-1.761c.067-.287.108-.567.153-.85h.02c.037.283.092.563.16.85l.408 1.76h.836l.654-4.656h-.737l-.276 2.812c-.035.384-.047.643-.07 1.095h-.028a16.275 16.275 0 0 0-.227-1.095l-.402-1.618h-.595l-.417 1.618a19.42 19.42 0 0 0-.228 1.095h-.022c-.018-.45-.04-.708-.075-1.1l-.288-2.807h-.777l.685 4.657h.82zm6.322 0v-.601h-1.138v-3.45h1.138v-.6h-2.99v.6h1.139v3.45h-1.138v.6h2.989zm1.869 0v-2.23c0-.5-.068-1.029-.096-1.514h.017l.434.978 1.358 2.766h.762v-4.651h-.68v2.213c0 .505.068 1.062.096 1.53h-.017l-.434-.979-1.358-2.764h-.762v4.65h.68zm9.444.085c1.055 0 1.685-.61 1.685-1.356 0-.68-.436-1.02-1.02-1.247l-.63-.278c-.41-.159-.811-.306-.811-.71 0-.38.329-.607.818-.607.475 0 .813.154 1.124.415l.368-.455a2.088 2.088 0 0 0-1.461-.584c-.918 0-1.57.549-1.57 1.273 0 .685.52 1.03.995 1.217l.656.287c.461.195.801.321.801.776 0 .374-.327.645-.916.645-.505 0-.975-.219-1.329-.551l-.419.491a2.445 2.445 0 0 0 1.71.684zm4.238 0c1.065 0 1.809-.89 1.809-2.432 0-1.516-.744-2.39-1.809-2.39-1.064 0-1.808.874-1.808 2.39 0 1.542.744 2.432 1.808 2.432zm0-.624c-.646 0-1.072-.665-1.072-1.808 0-1.118.426-1.766 1.072-1.766.646 0 1.073.648 1.073 1.766 0 1.143-.427 1.808-1.073 1.808zm5.979.539v-.601h-2.24v-4.05h-.707v4.65h2.947zm1.323 0 .4-1.332h1.617l.395 1.332h.76l-1.536-4.651h-.83l-1.537 4.65h.73zm1.848-1.901h-1.278l.19-.632c.152-.504.296-1.024.436-1.55h.028c.134.526.287 1.046.438 1.55l.186.632zm2.737 1.9v-2.23c0-.499-.068-1.028-.096-1.513h.017l.434.978 1.358 2.766h.762v-4.651h-.68v2.213c0 .505.068 1.062.096 1.53h-.017l-.434-.979-1.358-2.764h-.762v4.65h.68zm3.938 0 .4-1.331h1.617l.395 1.332h.76l-1.536-4.651h-.83l-1.537 4.65h.73zm1.848-1.9h-1.278l.19-.632c.152-.504.296-1.024.436-1.55h.028c.134.526.287 1.046.438 1.55l.186.632zm-37.728 10.9v-2.12h1.757v2.12h.719v-4.65h-.72v1.903h-1.756v-1.903h-.719v4.65h.72zm3.918 0 .4-1.331h1.617l.395 1.332h.762l-1.537-4.651h-.83l-1.537 4.65h.73zm1.85-1.9h-1.279l.19-.632c.152-.504.296-1.024.436-1.55h.028c.134.526.286 1.046.438 1.55l.186.632zm4.005 1.986a1.83 1.83 0 0 0 1.462-.676l-.402-.432c-.274.305-.588.484-.99.484-.839 0-1.395-.685-1.395-1.8 0-1.098.556-1.774 1.384-1.774.376 0 .667.154.903.397l.402-.447a1.807 1.807 0 0 0-1.305-.574c-1.22 0-2.12.91-2.12 2.418 0 1.53.91 2.404 2.061 2.404zm3.115-.085v-1.428l.732-.897 1.257 2.325h.801l-1.617-2.865 1.457-1.786h-.806l-1.8 2.215h-.024v-2.215h-.721v4.65h.721zm3.815 0 .4-1.332h1.617l.395 1.332h.761l-1.536-4.651h-.83l-1.537 4.65h.73zm1.848-1.901h-1.278l.191-.632c.151-.504.295-1.024.435-1.55h.029c.134.526.286 1.046.437 1.55l.186.632zm3.992 1.9v-4.05h1.501v-.6h-3.716v.6h1.501v4.05h.714zm3.026 0v-2.12h1.757v2.12h.719v-4.65h-.72v1.903h-1.756v-1.903h-.72v4.65h.72zm5.14.086c1.064 0 1.808-.89 1.808-2.432 0-1.516-.744-2.39-1.808-2.39-1.065 0-1.809.874-1.809 2.39 0 1.542.744 2.432 1.809 2.432zm0-.624c-.646 0-1.073-.665-1.073-1.808 0-1.118.427-1.766 1.073-1.766.646 0 1.072.648 1.072 1.766 0 1.143-.426 1.808-1.072 1.808zm3.363.539v-2.23c0-.5-.067-1.029-.095-1.514h.017l.434.978 1.358 2.766h.762v-4.651h-.68v2.213c0 .505.068 1.062.096 1.53h-.017l-.434-.979-1.358-2.764h-.762v4.65h.68z" id="izwluili4f"/>
        <path d="M257.366 130.085a1.83 1.83 0 0 0 1.462-.676l-.402-.432c-.274.305-.587.485-.99.485-.838 0-1.394-.686-1.394-1.8 0-1.099.556-1.775 1.384-1.775.376 0 .667.154.903.397l.402-.447a1.807 1.807 0 0 0-1.305-.573c-1.221 0-2.12.91-2.12 2.417 0 1.53.91 2.404 2.06 2.404zm5.607-.085v-.601h-2.239v-4.05h-.707V130h2.946zm2.545.085c1.064 0 1.808-.89 1.808-2.432 0-1.516-.744-2.39-1.808-2.39-1.065 0-1.809.874-1.809 2.39 0 1.542.744 2.432 1.809 2.432zm0-.623c-.646 0-1.073-.666-1.073-1.809 0-1.117.427-1.766 1.073-1.766.646 0 1.072.649 1.072 1.766 0 1.143-.426 1.809-1.072 1.809zm4.285.623c1.054 0 1.685-.61 1.685-1.356 0-.68-.436-1.02-1.02-1.247l-.63-.278c-.41-.159-.812-.306-.812-.71 0-.38.33-.607.819-.607.475 0 .813.154 1.123.415l.369-.455a2.088 2.088 0 0 0-1.462-.583c-.918 0-1.57.548-1.57 1.272 0 .685.52 1.03.996 1.217l.656.287c.46.195.8.321.8.776 0 .375-.326.646-.915.646-.506 0-.976-.22-1.33-.552l-.418.492a2.445 2.445 0 0 0 1.709.683zm5.88-.085v-.601h-2.29v-1.529h1.876v-.6h-1.876v-1.32h2.218v-.601h-2.931V130h3.002zm2.296 0c1.348 0 2.14-.835 2.14-2.347 0-1.506-.792-2.304-2.176-2.304h-1.184V130h1.22zm-.083-.582h-.424v-3.488h.424c.97 0 1.487.568 1.487 1.723 0 1.16-.516 1.765-1.487 1.765zM261.277 139c1.035 0 1.761-.44 1.761-1.364 0-.634-.384-.998-1.06-1.108v-.029c.55-.142.81-.561.81-1.011 0-.834-.67-1.14-1.624-1.14h-1.382V139h1.495zm-.199-2.718h-.588v-1.354h.611c.658 0 .99.172.99.635 0 .474-.292.72-1.013.72zm.114 2.139h-.702v-1.575h.702c.755 0 1.15.217 1.15.749 0 .577-.413.826-1.15.826zm5.967.579v-.601h-2.289v-1.529h1.876v-.6h-1.876v-1.32h2.218v-.601h-2.931V139h3.002zm2.977 0v-4.05h1.501v-.601h-3.716v.6h1.502V139h.713zm2.683 0 .4-1.332h1.617l.395 1.332h.761l-1.536-4.651h-.83L272.088 139h.73zm1.85-1.901h-1.28l.191-.632c.152-.504.295-1.023.435-1.55h.029c.134.527.286 1.046.438 1.55l.186.632z" id="j7kq7vgpcg"/>
        <path d="M161.822 130.085c1.064 0 1.808-.89 1.808-2.432 0-1.516-.744-2.39-1.808-2.39-1.065 0-1.809.874-1.809 2.39 0 1.542.744 2.432 1.809 2.432zm0-.623c-.647 0-1.073-.666-1.073-1.809 0-1.117.426-1.766 1.073-1.766.646 0 1.072.649 1.072 1.766 0 1.143-.426 1.809-1.072 1.809zm3.518.538v-1.775h.754c1.012 0 1.748-.461 1.748-1.475 0-1.05-.725-1.401-1.748-1.401h-1.468V130h.714zm.685-2.348h-.685v-1.73h.685c.738 0 1.11.208 1.11.828 0 .614-.361.902-1.11.902zm5.961 2.348v-.601h-2.289v-1.529h1.876v-.6h-1.876v-1.32h2.218v-.601h-2.931V130h3.002zm1.722 0v-2.23c0-.5-.067-1.028-.095-1.514h.017l.434.978L175.42 130h.763v-4.651h-.68v2.213c0 .505.067 1.062.095 1.53h-.017l-.434-.979-1.357-2.764h-.763V130h.68zm-11.865 9c1.035 0 1.76-.44 1.76-1.364 0-.634-.384-.998-1.06-1.108v-.029c.551-.142.81-.561.81-1.011 0-.834-.669-1.14-1.623-1.14h-1.382V139h1.495zm-.2-2.718h-.588v-1.354h.612c.657 0 .99.172.99.635 0 .474-.292.72-1.014.72zm.115 2.139h-.703v-1.575h.703c.754 0 1.15.217 1.15.749 0 .577-.413.826-1.15.826zm5.967.579v-.601h-2.29v-1.529h1.877v-.6h-1.877v-1.32h2.219v-.601h-2.932V139h3.003zm2.976 0v-4.05h1.502v-.601h-3.717v.6h1.502V139h.713zm2.683 0 .4-1.332h1.618l.394 1.332h.762l-1.537-4.651h-.83L172.654 139h.73zm1.85-1.901h-1.28l.192-.632c.151-.504.295-1.023.435-1.55h.028c.134.527.286 1.046.438 1.55l.187.632z" id="ym99onpdoh"/>
        <path d="M27.067 130v-.601h-1.138v-3.45h1.138v-.6h-2.989v.6h1.138v3.45h-1.138V130h2.989zm1.869 0v-2.23c0-.5-.067-1.028-.095-1.514h.016l.435.978L30.649 130h.762v-4.651h-.68v2.213c0 .505.068 1.062.096 1.53h-.017l-.434-.979-1.357-2.764h-.763V130h.68zm6.714-2.085v-.517h-3.11v.517h3.11zM37.135 130l.4-1.332h1.618l.394 1.332h.762l-1.537-4.651h-.83L36.405 130h.73zm1.85-1.901h-1.279l.19-.632c.152-.504.296-1.023.436-1.55h.028c.134.527.286 1.046.438 1.55l.186.632zm2.89 1.901v-1.775h.754c1.012 0 1.748-.461 1.748-1.475 0-1.05-.725-1.401-1.748-1.401h-1.467V130h.713zm.686-2.348h-.686v-1.73h.686c.737 0 1.108.208 1.108.828 0 .614-.36.902-1.108.902zM46.136 130v-1.775h.754c1.013 0 1.749-.461 1.749-1.475 0-1.05-.725-1.401-1.749-1.401h-1.467V130h.713zm.686-2.348h-.686v-1.73h.686c.738 0 1.109.208 1.109.828 0 .614-.36.902-1.109.902zM55.76 130v-4.05h1.502v-.601h-3.716v.6h1.501V130h.713zm3.142 0v-1.89l.754.001 1.06 1.889h.803l-1.144-1.982.044-.013c.568-.184.943-.612.943-1.31 0-1.005-.72-1.346-1.674-1.346h-1.505V130h.72zm.701-2.462h-.7v-1.616h.7c.68 0 1.05.203 1.05.774 0 .56-.37.842-1.05.842zM62.704 130l.4-1.332h1.617l.395 1.332h.761l-1.536-4.651h-.83L61.974 130h.73zm1.85-1.901h-1.279l.19-.632c.152-.504.296-1.023.436-1.55h.028c.134.527.286 1.046.438 1.55l.186.632zm3.31 1.901c1.348 0 2.14-.835 2.14-2.347 0-1.506-.792-2.304-2.176-2.304h-1.184V130h1.22zm-.083-.582h-.424v-3.488h.424c.97 0 1.487.568 1.487 1.723 0 1.16-.516 1.765-1.487 1.765zm6.31.582v-.601H71.8v-1.529h1.876v-.6h-1.876v-1.32h2.218v-.601h-2.931V130h3.002zm6.356 0v-2.008h1.87v-.601h-1.87v-1.441h2.205v-.601h-2.918V130h.713zm4.795.085c.964 0 1.589-.55 1.589-1.852v-2.884h-.688v2.922c0 .854-.372 1.19-.901 1.19-.524 0-.887-.336-.887-1.19v-2.922h-.72v2.884c0 1.301.636 1.852 1.607 1.852zm3.355-.085v-2.23c0-.5-.068-1.028-.096-1.514h.017l.434.978L90.31 130h.762v-4.651h-.68v2.213c0 .505.068 1.062.096 1.53h-.017l-.434-.979-1.358-2.764h-.762V130h.68zm5.53.085a1.83 1.83 0 0 0 1.462-.676l-.402-.432c-.273.305-.587.485-.99.485-.838 0-1.394-.686-1.394-1.8 0-1.099.556-1.775 1.384-1.775.376 0 .667.154.903.397l.402-.447a1.807 1.807 0 0 0-1.305-.573c-1.221 0-2.12.91-2.12 2.417 0 1.53.91 2.404 2.06 2.404zm4.247-.085v-4.05h1.502v-.601H96.16v.6h1.501V130h.713zm5.4 0v-.601h-1.138v-3.45h1.138v-.6h-2.99v.6h1.139v3.45h-1.138V130h2.989zm2.767.085c1.064 0 1.808-.89 1.808-2.432 0-1.516-.744-2.39-1.808-2.39-1.065 0-1.809.874-1.809 2.39 0 1.542.744 2.432 1.809 2.432zm0-.623c-.646 0-1.073-.666-1.073-1.809 0-1.117.427-1.766 1.073-1.766.646 0 1.072.649 1.072 1.766 0 1.143-.426 1.809-1.072 1.809zm3.363.538v-2.23c0-.5-.067-1.028-.095-1.514h.017l.434.978 1.357 2.766h.763v-4.651h-.68v2.213c0 .505.067 1.062.095 1.53h-.016l-.435-.979-1.357-2.764h-.762V130h.68zm-76.445 9v-.601h-1.138v-3.45h1.138v-.6H30.47v.6h1.138v3.45H30.47V139h2.99zm1.87 0v-2.23c0-.5-.068-1.028-.096-1.514h.017l.434.978L37.04 139h.763v-4.651h-.68v2.213c0 .505.068 1.062.095 1.53h-.016l-.435-.979-1.357-2.764h-.762V139h.68zm6.714-2.085v-.517h-3.11v.517h3.11zM43.528 139l.4-1.332h1.617L45.94 139h.76l-1.536-4.651h-.83L42.797 139h.73zm1.848-1.901h-1.278l.19-.632c.152-.504.296-1.023.436-1.55h.028c.134.527.287 1.046.438 1.55l.186.632zM48.267 139v-1.775h.754c1.012 0 1.749-.461 1.749-1.475 0-1.05-.726-1.401-1.749-1.401h-1.467V139h.713zm.686-2.348h-.686v-1.73h.686c.737 0 1.109.208 1.109.828 0 .614-.36.902-1.11.902zM52.529 139v-1.775h.754c1.012 0 1.748-.461 1.748-1.475 0-1.05-.725-1.401-1.748-1.401h-1.468V139h.714zm.685-2.348h-.685v-1.73h.685c.738 0 1.11.208 1.11.828 0 .614-.361.902-1.11.902zM60.785 139v-2.098c0-.471-.064-1.353-.11-1.777h.017l.286.995.58 1.647h.447l.588-1.647.286-.995h.022c-.034.424-.11 1.306-.11 1.777V139h.65v-4.651h-.821l-.608 1.898-.203.724h-.028l-.209-.724-.602-1.898h-.82V139h.635zm4.05 0 .4-1.332h1.617l.395 1.332h.761l-1.536-4.651h-.83L64.104 139h.73zm1.85-1.901h-1.28l.191-.632c.152-.504.295-1.023.435-1.55h.029c.134.527.286 1.046.437 1.55l.187.632zm2.87 1.901v-1.89l.754.001L71.37 139h.803l-1.144-1.982.043-.013c.568-.184.943-.612.943-1.31 0-1.005-.719-1.346-1.673-1.346h-1.505V139h.72zm.7-2.462h-.7v-1.616h.7c.68 0 1.051.203 1.051.774 0 .56-.37.842-1.05.842zm3.55 2.462v-1.427l.731-.898L75.794 139h.8l-1.616-2.866 1.457-1.785h-.807l-1.8 2.215h-.023v-2.215h-.722V139h.722zm6.678 0v-.601h-2.29v-1.529h1.877v-.6h-1.877v-1.32h2.218v-.601h-2.93V139h3.002zm2.976 0v-4.05h1.502v-.601h-3.717v.6h1.502V139h.713zm3.162 0v-1.775h.754c1.012 0 1.748-.461 1.748-1.475 0-1.05-.725-1.401-1.748-1.401h-1.468V139h.714zm.685-2.348h-.685v-1.73h.685c.738 0 1.109.208 1.109.828 0 .614-.36.902-1.109.902zM93.342 139v-.601h-2.238v-4.05h-.708V139h2.946zm1.323 0 .4-1.332h1.618l.394 1.332h.762l-1.537-4.651h-.83L93.935 139h.73zm1.85-1.901h-1.279l.19-.632c.152-.504.296-1.023.436-1.55h.028c.134.527.286 1.046.438 1.55l.186.632zm4.005 1.986a1.83 1.83 0 0 0 1.462-.676l-.402-.432c-.274.305-.588.485-.99.485-.839 0-1.395-.686-1.395-1.8 0-1.099.556-1.775 1.384-1.775.376 0 .667.154.903.397l.402-.447a1.807 1.807 0 0 0-1.305-.573c-1.22 0-2.12.91-2.12 2.417 0 1.53.91 2.404 2.06 2.404zm5.531-.085v-.601h-2.289v-1.529h1.877v-.6h-1.877v-1.32h2.218v-.601h-2.93V139h3.001z" id="i309ztkl5i"/>
        <path d="m49.92 6 .364-.953h2.693l.357.953h1.773v-.497L52.903.2h-2.47l-2.245 5.303V6h1.732zm2.502-2.444h-1.566l.688-1.782h.207l.671 1.782zM60.08 6l1.325-1.326V.2h-1.823v3.853l-.372.373h-1.326l-.373-.373V.2h-1.823v4.474L57.013 6h3.066zm7.457 0 1.243-1.243V2.395H65.34V3.68h1.658v.456l-.373.372H64.76l-.373-.372V2.064l.373-.373h3.44V.2h-4.393l-1.243 1.243v3.314L63.807 6h3.73zm6.63 0 1.325-1.326V.2h-1.823v3.853l-.373.373H71.97l-.373-.373V.2h-1.823v4.474L71.1 6h3.066zm7.001 0 1.036-1.036V3.473l-1.119-1.119h-2.569l-.165-.166v-.331l.165-.166h3.398V.2h-4.35l-1.036 1.035v1.492l1.118 1.119h2.57l.165.165v.332l-.166.165h-3.563V6h4.516zm5.179 0V1.691h2.113V.2H82.41V1.69h2.113V6h1.823z" id="frky97nwoj"/>
        <path d="m142.464 6 1.036-1.036V3.473l-1.119-1.119h-2.568l-.166-.166v-.331l.166-.166h3.397V.2h-4.35l-1.036 1.035v1.492l1.119 1.119h2.568l.166.165v.332l-.166.165h-3.563V6h4.516zm7.417 0V4.508h-3.564v-.787h2.57V2.395h-2.57v-.704h3.48V.2h-5.303V6h5.387zm2.858 0V4.55h2.776l1.077-1.077V1.277L155.515.2h-4.599V6h1.823zm1.782-2.942h-1.782V1.691h1.782l.248.249v.87l-.248.248zM160.818 6V1.691h2.113V.2h-6.049V1.69h2.113V6h1.823zm8.287 0V4.508h-3.564v-.787h2.57V2.395h-2.57v-.704h3.48V.2h-5.302V6h5.386zm2.775 0V2.354h.166l1.077 3.025h1.575l1.077-3.025h.166V6h1.74V.2h-2.594l-1.06 3.024h-.2L172.768.2h-2.627V6h1.74zm12.223 0 .994-.994V3.638l-.829-.828.539-.539v-1.16L183.895.2h-4.806V6h5.014zm-1.301-3.588h-1.89v-.804h1.906l.166.166v.456l-.182.182zm.223 2.18h-2.113v-.937h2.13l.232.232v.456l-.249.248zM191.602 6V4.508h-3.563v-.787h2.568V2.395h-2.568v-.704h3.48V.2h-5.303V6h5.386zm2.858 0V4.343h1.144L196.772 6h1.79v-.497l-1.052-1.434.886-.886V1.277L197.32.2h-4.682V6h1.823zm1.865-3.107h-1.865V1.65h1.865l.248.248v.746l-.248.249z" id="mz6ks5fwnk"/>
        <path d="m248.868 6 1.243-1.243V1.443L248.868.2h-3.729l-1.242 1.243v3.314L245.139 6h3.73zm-.953-1.492h-1.823l-.372-.372V2.064l.372-.373h1.823l.373.373v2.072l-.373.372zM256.45 6V4.508h-3.066l-.373-.372V2.064l.373-.373h3.066V.2h-4.019l-1.243 1.243v3.314L252.431 6h4.02zm4.35 0V1.691h2.113V.2h-6.049V1.69h2.113V6h1.823zm7.54 0 1.244-1.243V1.443L268.34.2h-3.729l-1.243 1.243v3.314L264.612 6h3.729zm-.952-1.492h-1.823l-.373-.372V2.064l.373-.373h1.823l.373.373v2.072l-.373.372zM275.84 6l.994-.994V3.638l-.828-.828.538-.539v-1.16L275.633.2h-4.806V6h5.013zm-1.301-3.588h-1.89v-.804h1.907l.165.166v.456l-.182.182zm.224 2.18h-2.113v-.937h2.13l.231.232v.456l-.248.248zM283.339 6V4.508h-3.563v-.787h2.569V2.395h-2.57v-.704h3.481V.2h-5.303V6h5.386zm2.859 0V4.343h1.143L288.51 6h1.79v-.497l-1.053-1.434.887-.886V1.277L289.056.2h-4.681V6h1.823zm1.864-3.107h-1.864V1.65h1.864l.249.248v.746l-.249.249z" id="wu1z36o27l"/>
        <path d="M240.686 99.516v-3.812h.165l1.782 3.812h2.651v-5.8h-1.698v3.811h-.166l-1.781-3.811h-2.652v5.8h1.699zm10.813 0 1.243-1.243v-3.315l-1.243-1.242h-3.729l-1.243 1.242v3.315l1.243 1.243h3.73zm-.953-1.492h-1.823l-.373-.372V95.58l.373-.373h1.823l.373.373v2.072l-.373.372zm7.309 1.492 1.848-5.303v-.497h-1.666l-1.409 4.143h-.281l-1.4-4.143h-1.708v.497l1.881 5.303h2.735zm8.062 0v-1.492h-3.563v-.787h2.569v-1.326h-2.569v-.704h3.48v-1.491h-5.303v5.8h5.386zm2.776 0V95.87h.166l1.077 3.024h1.574l1.078-3.024h.165v3.646h1.74v-5.8H271.9l-1.06 3.024h-.2l-1.06-3.024h-2.627v5.8h1.74zm12.222 0 .995-.994v-1.368l-.829-.828.539-.539v-1.16l-.912-.911h-4.806v5.8h5.013zm-1.3-3.588h-1.89v-.804h1.906l.166.166v.456l-.183.182zm.223 2.18h-2.113v-.937h2.13l.232.232v.456l-.249.248zm8.576 1.408v-1.492h-3.563v-.787h2.569v-1.326h-2.569v-.704h3.48v-1.491h-5.303v5.8h5.386zm2.859 0v-1.657h1.144l1.168 1.657h1.79v-.497l-1.053-1.434.887-.886v-1.906l-1.077-1.077h-4.682v5.8h1.823zm1.864-3.107h-1.864v-1.243h1.864l.249.248v.746l-.249.249z" id="i3jschnjkm"/>
        <path d="M248.226 193.032v-1.492h-3.77v-.414l.248-.249h2.652l.912-.911v-1.823l-.912-.912h-4.475v1.492h3.398l.166.166v.414l-.166.166h-2.569l-1.077 1.077v2.486h5.593zm5.635 0 1.243-1.243v-3.315l-1.243-1.243h-3.398l-1.243 1.243v3.315l1.243 1.243h3.398zm-.953-1.492h-1.492l-.373-.373v-2.071l.373-.373h1.492l.373.373v2.071l-.373.373zm8.576 1.492v-1.492h-3.77v-.414l.248-.249h2.652l.911-.911v-1.823l-.911-.912h-4.475v1.492h3.398l.166.166v.414l-.166.166h-2.569l-1.077 1.077v2.486h5.593zm6.463 0v-1.492h-3.77v-.414l.249-.249h2.651l.912-.911v-1.823l-.912-.912h-4.474v1.492H266l.166.166v.414l-.166.166h-2.569l-1.077 1.077v2.486h5.593zm4.798 0 .365-.953h2.693l.356.953h1.773v-.497l-2.204-5.304h-2.47l-2.245 5.304v.497h1.732zm2.502-2.445h-1.566l.688-1.781h.207l.671 1.781zm5.337 2.445v-1.45h2.776l1.077-1.077v-2.196l-1.077-1.078h-4.6v5.8h1.824zm1.781-2.942h-1.781v-1.367h1.781l.249.249v.87l-.249.248zm4.972 2.942v-1.657h1.144l1.168 1.657h1.79v-.497l-1.053-1.434.887-.887v-1.905l-1.077-1.078h-4.682v5.8h1.823zm1.864-3.108h-1.864v-1.242h1.864l.249.248v.746l-.249.248z" id="e67cznqywn"/>
        <path d="m145.25 99.516 1.242-1.243v-3.315l-1.243-1.242h-4.723v5.8h4.723zm-.954-1.492h-1.947v-2.817h1.947l.373.373v2.072l-.373.372zm8.825 1.492v-1.492h-3.563v-.787h2.569v-1.326h-2.569v-.704h3.48v-1.491h-5.303v5.8h5.386zm5.966 0v-1.492h-3.066l-.373-.372V95.58l.373-.373h3.066v-1.491h-4.019l-1.243 1.242v3.315l1.243 1.243h4.02zm6.422 0v-1.492h-3.563v-.787h2.569v-1.326h-2.57v-.704h3.481v-1.491h-5.303v5.8h5.386zm2.776 0V95.87h.166l1.077 3.024h1.574l1.077-3.024h.166v3.646h1.74v-5.8h-2.593l-1.061 3.024h-.199l-1.06-3.024h-2.627v5.8h1.74zm12.222 0 .994-.994v-1.368l-.828-.828.538-.539v-1.16l-.911-.911h-4.806v5.8h5.013zm-1.301-3.588h-1.89v-.804h1.907l.165.166v.456l-.182.182zm.224 2.18h-2.113v-.937h2.13l.231.232v.456l-.248.248zm8.576 1.408v-1.492h-3.563v-.787h2.569v-1.326h-2.57v-.704h3.481v-1.491h-5.303v5.8h5.386zm2.859 0v-1.657h1.143l1.169 1.657h1.79v-.497l-1.053-1.434.887-.886v-1.906l-1.078-1.077h-4.681v5.8h1.823zm1.864-3.107h-1.864v-1.243h1.864l.249.248v.746l-.249.249z" id="kum8vxvkbo"/>
        <path d="M147.528 193.032v-1.492h-3.77v-.414l.248-.249h2.652l.911-.911v-1.823l-.911-.912h-4.475v1.492h3.398l.165.166v.414l-.165.166h-2.57l-1.076 1.077v2.486h5.593zm5.634 0 1.243-1.243v-3.315l-1.243-1.243h-3.397l-1.243 1.243v3.315l1.243 1.243h3.397zm-.952-1.492h-1.492l-.373-.373v-2.071l.373-.373h1.492l.372.373v2.071l-.372.373zm8.576 1.492v-1.492h-3.77v-.414l.248-.249h2.652l.911-.911v-1.823l-.911-.912h-4.475v1.492h3.398l.165.166v.414l-.165.166h-2.57l-1.076 1.077v2.486h5.593zm6.463 0v-1.492h-3.77v-.414l.248-.249h2.652l.911-.911v-1.823l-.911-.912h-4.475v1.492h3.398l.165.166v.414l-.165.166h-2.569l-1.077 1.077v2.486h5.593zm5.718 0v-3.646h.165l1.077 3.024h1.575l1.077-3.024h.166v3.646h1.74v-5.8h-2.594l-1.06 3.024h-.2l-1.06-3.025h-2.627v5.8h1.74zm8.36 0 .365-.953h2.693l.356.953h1.773v-.497l-2.204-5.304h-2.469l-2.246 5.304v.497h1.732zm2.503-2.445h-1.566l.687-1.781h.208l.67 1.781zm5.336 2.445v-1.657h1.144l1.168 1.657h1.79v-.497l-1.053-1.434.887-.887v-1.905l-1.077-1.078h-4.682v5.8h1.823zm1.864-3.108h-1.864v-1.242h1.864l.25.248v.746l-.25.248z" id="k66erwhdcp"/>
        <path d="M49.159 99.516v-1.492h-3.77v-.414l.248-.249h2.652l.911-.911v-1.823l-.911-.911h-4.475v1.491h3.397l.166.166v.414l-.166.166h-2.568l-1.078 1.077v2.486h5.594zm5.634 0 1.243-1.243v-3.315l-1.243-1.242h-3.397l-1.243 1.242v3.315l1.243 1.243h3.397zm-.953-1.492H52.35l-.373-.372V95.58l.373-.373h1.491l.373.373v2.072l-.373.372zm8.577 1.492v-1.492h-3.77v-.414l.248-.249h2.651l.912-.911v-1.823l-.912-.911h-4.474v1.491h3.397l.166.166v.414l-.166.166h-2.568l-1.078 1.077v2.486h5.594zm6.463 0v-1.492h-3.77v-.414l.248-.249h2.652l.911-.911v-1.823l-.911-.911h-4.475v1.491h3.398l.165.166v.414l-.165.166h-2.57l-1.076 1.077v2.486h5.593zm6.546 0 1.284-1.284v-4.516h-3.977v1.491h2.154v2.403l-.331.332h-2.113v1.574h2.983zm3.596 0 .365-.953h2.693l.356.953h1.773v-.497l-2.204-5.303h-2.47l-2.245 5.303v.497h1.732zm2.503-2.445h-1.567l.688-1.781h.207l.672 1.781zm5.212 2.445v-3.812h.165l1.782 3.812h2.651v-5.8h-1.698v3.811h-.166l-1.782-3.811h-2.651v5.8h1.699z" id="d2sru4eikq"/>
        <path d="M49.345 193.032v-1.492h-3.77v-.414l.248-.249h2.652l.911-.911v-1.823l-.911-.912H44v1.492h3.398l.165.166v.414l-.165.166h-2.569l-1.077 1.077v2.486h5.593zm5.635 0 1.243-1.243v-3.315l-1.243-1.243h-3.398l-1.243 1.243v3.315l1.243 1.243h3.398zm-.953-1.492h-1.492l-.373-.373v-2.071l.373-.373h1.492l.373.373v2.071l-.373.373zm8.576 1.492v-1.492h-3.77v-.414l.248-.249h2.652l.911-.911v-1.823l-.911-.912h-4.475v1.492h3.398l.165.166v.414l-.165.166h-2.569l-1.077 1.077v2.486h5.593zm6.463 0v-1.492h-3.77v-.414l.249-.249h2.651l.912-.911v-1.823l-.912-.912h-4.474v1.492h3.397l.166.166v.414l-.166.166H64.55l-1.077 1.077v2.486h5.593zm5.8 0v-1.782h2.404v-1.408h-2.403v-1.119h3.314v-1.492h-5.137v5.8h1.823zm9.53 0v-1.492h-3.563v-.787H83.4v-1.326h-2.568v-.704h3.48v-1.492H79.01v5.8h5.386zm6.049 0 .994-.995v-1.367l-.829-.828.539-.539v-1.16l-.912-.912h-4.806v5.8h5.014zm-1.301-3.588h-1.89v-.804h1.906l.166.166v.456l-.182.182zm.223 2.18h-2.113v-.937h2.13l.232.232v.456l-.249.248z" id="vpva535h0r"/>
    </defs>
    <g transform="translate(1)" fill="none" fill-rule="evenodd">
        <path d="M23.675 19.307h264.369c25.694 0 46.524 20.83 46.524 46.524 0 25.694-20.83 46.524-46.524 46.524H46.794C20.952 112.355 0 133.305 0 159.15c0 25.844 20.95 46.794 46.795 46.794h252.26" stroke="#979797" stroke-width="2" stroke-linecap="round"/>
        <path d="M23.675 19.307h264.369c25.694 0 46.524 20.83 46.524 46.524 0 25.694-20.83 46.524-46.524 46.524H46.794C20.952 112.355 0 133.305 0 159.15c0 25.844 20.95 46.794 46.795 46.794h220.227" stroke="#72F596" stroke-width="2" stroke-linecap="round"/>
        <path d="M23.675 19.307h264.369c25.694 0 46.524 20.83 46.524 46.524 0 25.694-20.83 46.524-46.524 46.524H54.447h0" stroke="#72F596" stroke-width="2" stroke-linecap="round"/>
        <circle fill="#72F596" cx="68.187" cy="19.307" r="5.919"/>
        <circle fill="#72F596" cx="68.187" cy="112.823" r="5.919"/>
        <circle fill="#72F596" cx="167.622" cy="19.307" r="5.919"/>
        <circle fill="#72F596" cx="167.622" cy="112.823" r="5.919"/>
        <circle fill="#72F596" cx="267.057" cy="19.307" r="5.919"/>
        <circle fill="#72F596" cx="267.057" cy="112.823" r="5.919"/>
        <circle fill="#72F596" cx="68.187" cy="206.339" r="5.919"/>
        <circle fill="#72F596" cx="167.622" cy="206.339" r="5.919"/>
        <circle fill="#72F596" cx="267.057" cy="206.339" r="5.919"/>
        <g fill-rule="nonzero">
            <use fill="#000" xlink:href="#dlf1a3mkca"/>
            <use fill="#231F20" xlink:href="#dlf1a3mkca"/>
        </g>
        <g fill-rule="nonzero">
            <use fill="#000" xlink:href="#zpem6jw5mb"/>
            <use fill="#231F20" xlink:href="#zpem6jw5mb"/>
        </g>
        <path fill="red" d="M53 222h31v1H53z"/>
        <path d="M49.097 233.085c.6 0 1.111-.25 1.406-.545v-2.005h-1.511v.584h.858v1.107c-.152.15-.424.236-.711.236-.863 0-1.344-.686-1.344-1.8 0-1.099.539-1.775 1.343-1.775.427 0 .686.172.901.397l.402-.447c-.27-.284-.683-.573-1.303-.573-1.206 0-2.086.9-2.086 2.417 0 1.53.87 2.404 2.045 2.404zm5.63-.085v-.601h-2.29v-1.529h1.876v-.6h-1.876v-1.32h2.218v-.601h-2.931V233h3.002zm1.61 0v-2.098c0-.471-.065-1.353-.11-1.777h.016l.286.995.58 1.647h.447l.588-1.647.286-.995h.022c-.034.424-.11 1.306-.11 1.777V233h.65v-4.651h-.821l-.608 1.898-.203.724h-.028l-.209-.724-.601-1.898H55.7V233h.637zm9.556.085c1.054 0 1.685-.61 1.685-1.356 0-.68-.436-1.02-1.02-1.247l-.63-.278c-.41-.159-.811-.306-.811-.71 0-.38.329-.607.818-.607.475 0 .813.154 1.124.415l.368-.455a2.088 2.088 0 0 0-1.461-.583c-.919 0-1.571.548-1.571 1.272 0 .685.521 1.03.996 1.217l.656.287c.46.195.8.321.8.776 0 .375-.326.646-.915.646-.506 0-.976-.22-1.33-.552l-.418.492a2.445 2.445 0 0 0 1.709.683zm4.594-.085v-1.637l1.544-3.014h-.735l-.62 1.309c-.169.36-.344.71-.518 1.08h-.029c-.18-.37-.336-.72-.503-1.08l-.638-1.31h-.758l1.544 3.015V233h.713zm3.929.085c1.054 0 1.685-.61 1.685-1.356 0-.68-.436-1.02-1.02-1.247l-.63-.278c-.41-.159-.812-.306-.812-.71 0-.38.33-.607.819-.607.475 0 .813.154 1.124.415l.368-.455a2.088 2.088 0 0 0-1.461-.583c-.919 0-1.571.548-1.571 1.272 0 .685.521 1.03.996 1.217l.656.287c.46.195.8.321.8.776 0 .375-.326.646-.915.646-.506 0-.976-.22-1.33-.552l-.418.492a2.445 2.445 0 0 0 1.709.683zM79.01 233v-4.05h1.502v-.601h-3.716v.6h1.501V233h.713zm5.547 0v-.601h-2.29v-1.529h1.877v-.6h-1.876v-1.32h2.218v-.601h-2.932V233h3.003zm1.61 0v-2.098c0-.471-.065-1.353-.11-1.777h.017l.286.995.579 1.647h.447l.588-1.647.287-.995h.021c-.034.424-.11 1.306-.11 1.777V233h.65v-4.651h-.82l-.608 1.898-.203.724h-.029l-.208-.724-.602-1.898h-.821V233h.636z" fill="red" fill-rule="nonzero"/>
        <g fill-rule="nonzero">
            <use fill="#000" xlink:href="#38wwek63oc"/>
            <use fill="#231F20" xlink:href="#38wwek63oc"/>
        </g>
        <g fill-rule="nonzero">
            <use fill="#000" xlink:href="#rqsg73tnmd"/>
            <use fill="#231F20" xlink:href="#rqsg73tnmd"/>
        </g>
        <g fill-rule="nonzero">
            <use fill="#000" xlink:href="#kmjw9ee1ee"/>
            <use fill="#231F20" xlink:href="#kmjw9ee1ee"/>
        </g>
        <g fill-rule="nonzero">
            <use fill="#000" xlink:href="#izwluili4f"/>
            <use fill="#231F20" xlink:href="#izwluili4f"/>
        </g>
        <g fill-rule="nonzero">
            <use fill="#000" xlink:href="#j7kq7vgpcg"/>
            <use fill="#231F20" xlink:href="#j7kq7vgpcg"/>
        </g>
        <g fill-rule="nonzero">
            <use fill="#000" xlink:href="#ym99onpdoh"/>
            <use fill="#231F20" xlink:href="#ym99onpdoh"/>
        </g>
        <g fill-rule="nonzero">
            <use fill="#000" xlink:href="#i309ztkl5i"/>
            <use fill="#231F20" xlink:href="#i309ztkl5i"/>
        </g>
        <g fill-rule="nonzero">
            <use fill="#000" xlink:href="#frky97nwoj"/>
            <use fill="#231F20" xlink:href="#frky97nwoj"/>
        </g>
        <g fill-rule="nonzero">
            <use fill="#000" xlink:href="#mz6ks5fwnk"/>
            <use fill="#231F20" xlink:href="#mz6ks5fwnk"/>
        </g>
        <g fill-rule="nonzero">
            <use fill="#000" xlink:href="#wu1z36o27l"/>
            <use fill="#231F20" xlink:href="#wu1z36o27l"/>
        </g>
        <g fill-rule="nonzero">
            <use fill="#000" xlink:href="#i3jschnjkm"/>
            <use fill="#231F20" xlink:href="#i3jschnjkm"/>
        </g>
        <g fill-rule="nonzero">
            <use fill="#000" xlink:href="#e67cznqywn"/>
            <use fill="#231F20" xlink:href="#e67cznqywn"/>
        </g>
        <g fill-rule="nonzero">
            <use fill="#000" xlink:href="#kum8vxvkbo"/>
            <use fill="#231F20" xlink:href="#kum8vxvkbo"/>
        </g>
        <g fill-rule="nonzero">
            <use fill="#000" xlink:href="#k66erwhdcp"/>
            <use fill="#231F20" xlink:href="#k66erwhdcp"/>
        </g>
        <g fill-rule="nonzero">
            <use fill="#000" xlink:href="#d2sru4eikq"/>
            <use fill="#231F20" xlink:href="#d2sru4eikq"/>
        </g>
        <g fill-rule="nonzero">
            <use fill="#000" xlink:href="#vpva535h0r"/>
            <use fill="#231F20" xlink:href="#vpva535h0r"/>
        </g>
        <path d="M67.42 22.513a.422.422 0 0 1-.292-.117l-2.246-2.151a.422.422 0 1 1 .583-.61l1.918 1.837 3.478-4.227a.422.422 0 0 1 .651.536l-3.767 4.578a.422.422 0 0 1-.326.154z" fill="#000" fill-rule="nonzero"/>
        <g fill="#000" fill-rule="nonzero">
            <path d="M67.42 116.029a.422.422 0 0 1-.292-.118l-2.246-2.15a.422.422 0 1 1 .583-.61l1.918 1.837 3.478-4.227a.422.422 0 0 1 .651.536l-3.767 4.578a.422.422 0 0 1-.326.154zM67.42 209.421a.422.422 0 0 1-.292-.117l-2.246-2.15a.422.422 0 1 1 .583-.61l1.918 1.836 3.478-4.226a.422.422 0 0 1 .651.536l-3.767 4.577a.422.422 0 0 1-.326.154zM166.668 209.421a.422.422 0 0 1-.292-.117l-2.246-2.15a.422.422 0 1 1 .584-.61l1.917 1.836 3.478-4.226a.422.422 0 0 1 .651.536l-3.767 4.577a.422.422 0 0 1-.325.154zM266.668 209.421a.422.422 0 0 1-.292-.117l-2.246-2.15a.422.422 0 1 1 .584-.61l1.917 1.836 3.478-4.226a.422.422 0 0 1 .651.536l-3.767 4.577a.422.422 0 0 1-.325.154z"/>
        </g>
        <path d="M166.854 22.513a.422.422 0 0 1-.292-.117l-2.246-2.151a.422.422 0 1 1 .584-.61l1.917 1.837 3.478-4.227a.422.422 0 0 1 .652.536l-3.767 4.578a.422.422 0 0 1-.326.154zM166.854 116.029a.422.422 0 0 1-.292-.118l-2.246-2.15a.422.422 0 1 1 .584-.61l1.917 1.837 3.478-4.227a.422.422 0 0 1 .652.536l-3.767 4.578a.422.422 0 0 1-.326.154zM266.289 22.513a.422.422 0 0 1-.292-.117l-2.246-2.151a.422.422 0 1 1 .583-.61l1.918 1.837 3.478-4.227a.422.422 0 0 1 .651.536l-3.767 4.578a.422.422 0 0 1-.325.154zM266.289 116.029a.422.422 0 0 1-.292-.118l-2.246-2.15a.422.422 0 1 1 .583-.61l1.918 1.837 3.478-4.227a.422.422 0 0 1 .651.536l-3.767 4.578a.422.422 0 0 1-.325.154z" fill="#000" fill-rule="nonzero"/>
    </g>
</svg>
