<?xml version="1.0" encoding="utf-8"?>
<!-- Generator: Adobe Illustrator 23.0.1, SVG Export Plug-In . SVG Version: 6.00 Build 0)  -->
<svg version="1.1" id="Layer_1" xmlns="http://www.w3.org/2000/svg" xmlns:xlink="http://www.w3.org/1999/xlink" x="0px" y="0px"
	 viewBox="0 0 800 800" style="enable-background:new 0 0 800 800;" xml:space="preserve">
<style type="text/css">
	.st0{clip-path:url(#SVGID_2_);fill:#2B6AFF;}
	.st1{clip-path:url(#SVGID_2_);fill:#FEFEFE;}
</style>
<g>
	<defs>
		<rect id="SVGID_1_" x="-26.53" y="-26.53" width="853.06" height="853.06"/>
	</defs>
	<clipPath id="SVGID_2_">
		<use xlink:href="#SVGID_1_"  style="overflow:visible;"/>
	</clipPath>
	<path class="st0" d="M790.15,395.94c0,71.87,0.1,143.73-0.06,215.6c-0.05,21.72-1.64,43.34-6.08,64.71
		c-6.93,33.33-25.25,59.3-51.05,80.62c-20.8,17.19-44.88,26.43-71.44,29.85c-18.73,2.42-37.54,3.43-56.42,3.43
		c-140.02,0-280.04,0.1-420.05-0.1c-20.75-0.03-41.45-1.83-61.86-6.11c-23.74-4.98-44.19-16.24-62.1-32.29
		c-19.13-17.14-33.75-37.4-41.58-62.14c-4.47-14.14-6.67-28.7-7.87-43.44c-1.88-23-1.8-46.06-1.8-69.11
		c0.02-131.15-0.11-262.31,0.12-393.46c0.04-24.3,2.18-48.51,9.07-72.02c4.9-16.71,13.7-31.36,24.56-44.79
		c16.22-20.07,36.03-35.51,60.19-44.94c13.75-5.37,28.17-7.96,42.79-9.5c20.96-2.2,42-2.44,63.06-2.43
		c131.63,0.06,263.26,0.06,394.89-0.01c15.25-0.01,30.48,0.1,45.64,1.86c28.75,3.34,56.19,10.58,79.63,28.52
		c28.51,21.81,47.18,50.02,54.59,85.44c3.88,18.53,5.76,37.23,5.76,56.13C790.16,253.16,790.15,324.55,790.15,395.94"/>
	<path class="st1" d="M488.71,367.56c-4.24,6.64-8.5,13.28-12.72,19.94c-15.85,25.02-31.08,50.41-46.55,75.65
		c-4.9,7.99-10.74,15.22-18.4,20.88c-23.44,17.33-47.63-0.26-50.41-20.66c-1.81-13.24-3.25-26.45-3.3-39.81
		c-0.06-15.44,0-30.88-0.03-46.32c0-2.25-0.22-4.5-0.34-6.76c-1.06,0.03-1.17,0.82-1.48,1.34c-29.2,48.33-59.89,95.73-89.78,143.64
		c-1.81,2.91-3.57,5.86-5.47,8.71c-0.88,1.32-0.88,2.13,0.32,3.37c30.21,31.23,66,52.32,109.32,58.98
		c52.53,8.09,100.38-3.7,143.09-35.52c5.19-3.86,9.89-8.37,15.02-12.32c6.31-4.87,13.23-7.93,21.51-5.99
		c1.15,0.27,2.15,0.69,3.02,1.48c1.97,1.8,3.84,3.74,5.97,5.32c6.39,4.71,6.72,11.04,4.96,17.91c-2.1,8.19-7.82,13.84-14.02,18.99
		c-29.04,24.12-61.63,41.28-98.71,49.1c-71.03,14.98-135.71,0.72-192.83-44.19c-43.53-34.24-71.13-79.05-83.25-133.17
		c-6.29-28.08-6.89-56.37-2.71-84.87c13-88.54,76.14-155.53,146.82-182.43c23-8.75,46.7-13.49,71.29-14.31
		c26.66-0.88,52.84,1.5,78.36,9.68c34.5,11.05,64.89,29.01,90.96,54.15c35.56,34.29,57.88,75.85,67.26,124.28
		c4.58,23.63,5.63,47.51,1.86,71.33c-4.55,28.73-27.86,57.11-59.33,63.13c-31.11,5.95-60.15-10.13-72.75-40.53
		c-5.42-13.08-6.89-26.84-6.95-40.83c-0.05-12.86-0.01-25.73-0.01-38.59c0-0.44-0.04-0.89-0.06-1.34
		C489.14,367.71,488.92,367.63,488.71,367.56"/>
	<path class="st0" d="M399.37,429.74c0-6.44,0.01-12.88,0-19.32c-0.03-26.59,0.12-53.18-0.17-79.76
		c-0.12-10.75-2.52-21.04-10.47-29.1c-7.07-7.17-17.91-9.2-27.18-5.23c-6.58,2.82-11.7,7.42-15.77,13.22
		c-9.37,13.33-17.23,27.63-26.17,41.23c-28.62,43.57-55.19,88.43-83.38,132.27c-2.26,3.51-4.14,3.57-6.11-0.34
		c-2.35-4.66-4.37-9.5-6.26-14.36c-8.14-20.86-12.46-42.48-12.75-64.9c-0.59-46.49,12.4-88.58,41.74-124.88
		c28.8-35.64,65.76-58.79,111.02-67.11c65.36-12.01,122.05,6.2,169.33,52.37c29.4,28.72,46.51,64.34,53.29,104.9
		c2.51,15.02,3.17,30.14,1.58,45.26c-1.17,11.06-5.69,20.79-14.51,27.91c-7.31,5.89-15.69,9.17-24.96,5.5
		c-9.78-3.86-14.79-11.89-16.49-22.04c-2.5-14.92-2.08-29.96-1.82-45.01c0.23-12.85,1.08-25.82-1.72-38.45
		c-3.27-14.73-11.83-25.2-27.07-28.97c-7.37-1.82-14.14,0.6-20.54,4c-9.75,5.17-17.02,13.1-23.29,21.95
		c-11.13,15.7-20.67,32.43-30.87,48.73c-8.54,13.63-17.09,27.26-25.64,40.89c-0.29,0.47-0.61,0.93-0.91,1.39L399.37,429.74z"/>
</g>
</svg>
