<svg width="37" height="30" viewBox="0 0 37 30" xmlns="http://www.w3.org/2000/svg">
    <path d="M0 26.598A21.563 21.563 0 0 0 11.634 30c14.098 0 22.058-11.865 21.58-22.509A15.37 15.37 0 0 0 37 3.576a15.241 15.241 0 0 1-4.36 1.19 7.59 7.59 0 0 0 3.337-4.19 15.202 15.202 0 0 1-4.816 1.839A7.62 7.62 0 0 0 22.016.894a7.569 7.569 0 0 0-3.818 8.42A21.581 21.581 0 0 1 2.554 1.41a7.555 7.555 0 0 0 2.352 10.1 7.568 7.568 0 0 1-3.442-.945 7.583 7.583 0 0 0 6.093 7.518 7.565 7.565 0 0 1-3.428.127 7.584 7.584 0 0 0 7.087 5.255A15.275 15.275 0 0 1 0 26.598z" fill="#231F20" fill-rule="nonzero"/>
</svg>
